<mxfile host="Electron" agent="Mozilla/5.0 (Windows NT 10.0; Win64; x64) AppleWebKit/537.36 (KHTML, like Gecko) draw.io/28.0.6 Chrome/138.0.7204.100 Electron/37.2.3 Safari/537.36" version="28.0.6" pages="2">
  <diagram name="페이지-1" id="BMjAuZtKjtpiU96oHI7h">
    <mxGraphModel dx="819" dy="426" grid="1" gridSize="10" guides="1" tooltips="1" connect="1" arrows="1" fold="1" page="1" pageScale="1" pageWidth="827" pageHeight="1169" math="0" shadow="0">
      <root>
        <mxCell id="0" />
        <mxCell id="1" parent="0" />
        <mxCell id="ZmpdYYW-7Tk491ilo6hp-1" value="과일" style="rounded=0;whiteSpace=wrap;html=1;" vertex="1" parent="1">
          <mxGeometry x="30" y="160" width="120" height="60" as="geometry" />
        </mxCell>
        <mxCell id="ZmpdYYW-7Tk491ilo6hp-2" value="가전" style="rounded=0;whiteSpace=wrap;html=1;" vertex="1" parent="1">
          <mxGeometry x="380" y="160" width="120" height="60" as="geometry" />
        </mxCell>
        <mxCell id="ZmpdYYW-7Tk491ilo6hp-3" value="자동차" style="rounded=0;whiteSpace=wrap;html=1;" vertex="1" parent="1">
          <mxGeometry x="30" y="280" width="120" height="60" as="geometry" />
        </mxCell>
        <mxCell id="ZmpdYYW-7Tk491ilo6hp-4" value="가구" style="rounded=0;whiteSpace=wrap;html=1;" vertex="1" parent="1">
          <mxGeometry x="380" y="280" width="120" height="60" as="geometry" />
        </mxCell>
        <mxCell id="ZmpdYYW-7Tk491ilo6hp-5" value="관계 x" style="text;html=1;align=center;verticalAlign=middle;resizable=0;points=[];autosize=1;strokeColor=none;fillColor=none;" vertex="1" parent="1">
          <mxGeometry x="230" y="175" width="60" height="30" as="geometry" />
        </mxCell>
        <mxCell id="ZmpdYYW-7Tk491ilo6hp-6" value="관계 x" style="text;html=1;align=center;verticalAlign=middle;resizable=0;points=[];autosize=1;strokeColor=none;fillColor=none;" vertex="1" parent="1">
          <mxGeometry x="230" y="290" width="60" height="30" as="geometry" />
        </mxCell>
        <mxCell id="ZmpdYYW-7Tk491ilo6hp-7" value="테이블 간 관계가 없는경우" style="text;html=1;align=center;verticalAlign=middle;resizable=0;points=[];autosize=1;strokeColor=none;fillColor=none;" vertex="1" parent="1">
          <mxGeometry x="20" y="110" width="170" height="30" as="geometry" />
        </mxCell>
        <mxCell id="ZmpdYYW-7Tk491ilo6hp-20" value="" style="edgeStyle=orthogonalEdgeStyle;rounded=0;orthogonalLoop=1;jettySize=auto;html=1;endArrow=none;endFill=0;" edge="1" parent="1" source="ZmpdYYW-7Tk491ilo6hp-11" target="ZmpdYYW-7Tk491ilo6hp-16">
          <mxGeometry relative="1" as="geometry" />
        </mxCell>
        <mxCell id="ZmpdYYW-7Tk491ilo6hp-11" value="직원" style="rounded=0;whiteSpace=wrap;html=1;" vertex="1" parent="1">
          <mxGeometry x="40" y="1298" width="120" height="60" as="geometry" />
        </mxCell>
        <mxCell id="ZmpdYYW-7Tk491ilo6hp-12" value="부서" style="rounded=0;whiteSpace=wrap;html=1;" vertex="1" parent="1">
          <mxGeometry x="390" y="1298" width="120" height="60" as="geometry" />
        </mxCell>
        <mxCell id="ZmpdYYW-7Tk491ilo6hp-21" value="" style="edgeStyle=orthogonalEdgeStyle;rounded=0;orthogonalLoop=1;jettySize=auto;html=1;endArrow=none;endFill=0;" edge="1" parent="1" source="ZmpdYYW-7Tk491ilo6hp-16" target="ZmpdYYW-7Tk491ilo6hp-12">
          <mxGeometry relative="1" as="geometry" />
        </mxCell>
        <mxCell id="ZmpdYYW-7Tk491ilo6hp-16" value="소속" style="rhombus;whiteSpace=wrap;html=1;" vertex="1" parent="1">
          <mxGeometry x="230" y="1288" width="80" height="80" as="geometry" />
        </mxCell>
        <mxCell id="ZmpdYYW-7Tk491ilo6hp-28" value="1" style="text;html=1;align=center;verticalAlign=middle;resizable=0;points=[];autosize=1;strokeColor=none;fillColor=none;" vertex="1" parent="1">
          <mxGeometry x="160" y="1298" width="30" height="30" as="geometry" />
        </mxCell>
        <mxCell id="ZmpdYYW-7Tk491ilo6hp-29" value="1" style="text;html=1;align=center;verticalAlign=middle;resizable=0;points=[];autosize=1;strokeColor=none;fillColor=none;" vertex="1" parent="1">
          <mxGeometry x="210" y="1298" width="30" height="30" as="geometry" />
        </mxCell>
        <mxCell id="ZmpdYYW-7Tk491ilo6hp-30" value="1" style="text;html=1;align=center;verticalAlign=middle;resizable=0;points=[];autosize=1;strokeColor=none;fillColor=none;" vertex="1" parent="1">
          <mxGeometry x="360" y="1301" width="30" height="30" as="geometry" />
        </mxCell>
        <mxCell id="ZmpdYYW-7Tk491ilo6hp-31" value="N" style="text;html=1;align=center;verticalAlign=middle;resizable=0;points=[];autosize=1;strokeColor=none;fillColor=none;" vertex="1" parent="1">
          <mxGeometry x="300" y="1298" width="30" height="30" as="geometry" />
        </mxCell>
        <mxCell id="ZmpdYYW-7Tk491ilo6hp-144" value="" style="edgeStyle=orthogonalEdgeStyle;rounded=0;orthogonalLoop=1;jettySize=auto;html=1;endArrow=none;endFill=0;" edge="1" parent="1" source="ZmpdYYW-7Tk491ilo6hp-36" target="ZmpdYYW-7Tk491ilo6hp-38">
          <mxGeometry relative="1" as="geometry" />
        </mxCell>
        <mxCell id="ZmpdYYW-7Tk491ilo6hp-36" value="남자" style="rounded=0;whiteSpace=wrap;html=1;" vertex="1" parent="1">
          <mxGeometry x="20" y="500" width="120" height="60" as="geometry" />
        </mxCell>
        <mxCell id="ZmpdYYW-7Tk491ilo6hp-37" value="여자" style="rounded=0;whiteSpace=wrap;html=1;" vertex="1" parent="1">
          <mxGeometry x="370" y="500" width="120" height="60" as="geometry" />
        </mxCell>
        <mxCell id="ZmpdYYW-7Tk491ilo6hp-145" value="" style="edgeStyle=orthogonalEdgeStyle;rounded=0;orthogonalLoop=1;jettySize=auto;html=1;endArrow=none;endFill=0;" edge="1" parent="1" source="ZmpdYYW-7Tk491ilo6hp-38" target="ZmpdYYW-7Tk491ilo6hp-37">
          <mxGeometry relative="1" as="geometry" />
        </mxCell>
        <mxCell id="ZmpdYYW-7Tk491ilo6hp-38" value="결혼" style="rhombus;whiteSpace=wrap;html=1;" vertex="1" parent="1">
          <mxGeometry x="210" y="490" width="80" height="80" as="geometry" />
        </mxCell>
        <mxCell id="ZmpdYYW-7Tk491ilo6hp-101" value="테이블간 관계가 1:1" style="text;html=1;align=center;verticalAlign=middle;resizable=0;points=[];autosize=1;strokeColor=none;fillColor=none;" vertex="1" parent="1">
          <mxGeometry x="15" y="460" width="130" height="30" as="geometry" />
        </mxCell>
        <mxCell id="ZmpdYYW-7Tk491ilo6hp-147" value="1" style="text;html=1;align=center;verticalAlign=middle;resizable=0;points=[];autosize=1;strokeColor=none;fillColor=none;" vertex="1" parent="1">
          <mxGeometry x="135" y="498" width="30" height="30" as="geometry" />
        </mxCell>
        <mxCell id="ZmpdYYW-7Tk491ilo6hp-148" value="1" style="text;html=1;align=center;verticalAlign=middle;resizable=0;points=[];autosize=1;strokeColor=none;fillColor=none;" vertex="1" parent="1">
          <mxGeometry x="185" y="498" width="30" height="30" as="geometry" />
        </mxCell>
        <mxCell id="ZmpdYYW-7Tk491ilo6hp-149" value="1" style="text;html=1;align=center;verticalAlign=middle;resizable=0;points=[];autosize=1;strokeColor=none;fillColor=none;" vertex="1" parent="1">
          <mxGeometry x="345" y="498" width="30" height="30" as="geometry" />
        </mxCell>
        <mxCell id="ZmpdYYW-7Tk491ilo6hp-150" value="1" style="text;html=1;align=center;verticalAlign=middle;resizable=0;points=[];autosize=1;strokeColor=none;fillColor=none;" vertex="1" parent="1">
          <mxGeometry x="275" y="498" width="30" height="30" as="geometry" />
        </mxCell>
        <mxCell id="ZmpdYYW-7Tk491ilo6hp-154" value="" style="edgeStyle=orthogonalEdgeStyle;rounded=0;orthogonalLoop=1;jettySize=auto;html=1;endArrow=none;endFill=0;" edge="1" parent="1" source="ZmpdYYW-7Tk491ilo6hp-151" target="ZmpdYYW-7Tk491ilo6hp-153">
          <mxGeometry relative="1" as="geometry" />
        </mxCell>
        <mxCell id="ZmpdYYW-7Tk491ilo6hp-151" value="아빠" style="rounded=0;whiteSpace=wrap;html=1;" vertex="1" parent="1">
          <mxGeometry x="20" y="630" width="120" height="60" as="geometry" />
        </mxCell>
        <mxCell id="ZmpdYYW-7Tk491ilo6hp-152" value="엄마" style="rounded=0;whiteSpace=wrap;html=1;" vertex="1" parent="1">
          <mxGeometry x="370" y="630" width="120" height="60" as="geometry" />
        </mxCell>
        <mxCell id="ZmpdYYW-7Tk491ilo6hp-155" value="" style="edgeStyle=orthogonalEdgeStyle;rounded=0;orthogonalLoop=1;jettySize=auto;html=1;endArrow=none;endFill=0;" edge="1" parent="1" source="ZmpdYYW-7Tk491ilo6hp-153" target="ZmpdYYW-7Tk491ilo6hp-152">
          <mxGeometry relative="1" as="geometry" />
        </mxCell>
        <mxCell id="ZmpdYYW-7Tk491ilo6hp-153" value="부부" style="rhombus;whiteSpace=wrap;html=1;" vertex="1" parent="1">
          <mxGeometry x="210" y="620" width="80" height="80" as="geometry" />
        </mxCell>
        <mxCell id="ZmpdYYW-7Tk491ilo6hp-156" value="1" style="text;html=1;align=center;verticalAlign=middle;resizable=0;points=[];autosize=1;strokeColor=none;fillColor=none;" vertex="1" parent="1">
          <mxGeometry x="135" y="628" width="30" height="30" as="geometry" />
        </mxCell>
        <mxCell id="ZmpdYYW-7Tk491ilo6hp-157" value="1" style="text;html=1;align=center;verticalAlign=middle;resizable=0;points=[];autosize=1;strokeColor=none;fillColor=none;" vertex="1" parent="1">
          <mxGeometry x="185" y="628" width="30" height="30" as="geometry" />
        </mxCell>
        <mxCell id="ZmpdYYW-7Tk491ilo6hp-158" value="1" style="text;html=1;align=center;verticalAlign=middle;resizable=0;points=[];autosize=1;strokeColor=none;fillColor=none;" vertex="1" parent="1">
          <mxGeometry x="335" y="628" width="30" height="30" as="geometry" />
        </mxCell>
        <mxCell id="ZmpdYYW-7Tk491ilo6hp-159" value="1" style="text;html=1;align=center;verticalAlign=middle;resizable=0;points=[];autosize=1;strokeColor=none;fillColor=none;" vertex="1" parent="1">
          <mxGeometry x="275" y="628" width="30" height="30" as="geometry" />
        </mxCell>
        <mxCell id="ZmpdYYW-7Tk491ilo6hp-163" value="" style="edgeStyle=orthogonalEdgeStyle;rounded=0;orthogonalLoop=1;jettySize=auto;html=1;endArrow=none;endFill=0;" edge="1" parent="1" source="ZmpdYYW-7Tk491ilo6hp-160" target="ZmpdYYW-7Tk491ilo6hp-162">
          <mxGeometry relative="1" as="geometry" />
        </mxCell>
        <mxCell id="ZmpdYYW-7Tk491ilo6hp-160" value="사람" style="rounded=0;whiteSpace=wrap;html=1;" vertex="1" parent="1">
          <mxGeometry x="20" y="770" width="120" height="60" as="geometry" />
        </mxCell>
        <mxCell id="ZmpdYYW-7Tk491ilo6hp-161" value="지문" style="rounded=0;whiteSpace=wrap;html=1;" vertex="1" parent="1">
          <mxGeometry x="370" y="770" width="120" height="60" as="geometry" />
        </mxCell>
        <mxCell id="ZmpdYYW-7Tk491ilo6hp-164" value="" style="edgeStyle=orthogonalEdgeStyle;rounded=0;orthogonalLoop=1;jettySize=auto;html=1;endArrow=none;endFill=0;" edge="1" parent="1" source="ZmpdYYW-7Tk491ilo6hp-162" target="ZmpdYYW-7Tk491ilo6hp-161">
          <mxGeometry relative="1" as="geometry" />
        </mxCell>
        <mxCell id="ZmpdYYW-7Tk491ilo6hp-162" value="소유" style="rhombus;whiteSpace=wrap;html=1;" vertex="1" parent="1">
          <mxGeometry x="215" y="760" width="80" height="80" as="geometry" />
        </mxCell>
        <mxCell id="ZmpdYYW-7Tk491ilo6hp-165" value="주민번호" style="ellipse;whiteSpace=wrap;html=1;align=center;fontStyle=4;" vertex="1" parent="1">
          <mxGeometry x="15" y="850" width="55" height="40" as="geometry" />
        </mxCell>
        <mxCell id="ZmpdYYW-7Tk491ilo6hp-167" value="이름" style="ellipse;whiteSpace=wrap;html=1;align=center;" vertex="1" parent="1">
          <mxGeometry x="80" y="850" width="50" height="40" as="geometry" />
        </mxCell>
        <mxCell id="ZmpdYYW-7Tk491ilo6hp-168" value="지문 ID" style="ellipse;whiteSpace=wrap;html=1;align=center;" vertex="1" parent="1">
          <mxGeometry x="365" y="850" width="50" height="40" as="geometry" />
        </mxCell>
        <mxCell id="ZmpdYYW-7Tk491ilo6hp-169" value="엄지 &lt;br&gt;이미지" style="ellipse;whiteSpace=wrap;html=1;align=center;" vertex="1" parent="1">
          <mxGeometry x="422.5" y="850" width="50" height="40" as="geometry" />
        </mxCell>
        <mxCell id="ZmpdYYW-7Tk491ilo6hp-170" value="검지 &lt;br&gt;이미지" style="ellipse;whiteSpace=wrap;html=1;align=center;" vertex="1" parent="1">
          <mxGeometry x="477.5" y="850" width="50" height="40" as="geometry" />
        </mxCell>
        <mxCell id="ZmpdYYW-7Tk491ilo6hp-171" value="사번&lt;br&gt;(PK)" style="ellipse;whiteSpace=wrap;html=1;align=center;fontStyle=4" vertex="1" parent="1">
          <mxGeometry x="30" y="1368" width="40" height="40" as="geometry" />
        </mxCell>
        <mxCell id="ZmpdYYW-7Tk491ilo6hp-172" value="이름" style="ellipse;whiteSpace=wrap;html=1;align=center;fontStyle=0" vertex="1" parent="1">
          <mxGeometry x="115" y="1368" width="40" height="40" as="geometry" />
        </mxCell>
        <mxCell id="ZmpdYYW-7Tk491ilo6hp-173" value="연락처" style="ellipse;whiteSpace=wrap;html=1;align=center;fontStyle=0" vertex="1" parent="1">
          <mxGeometry x="165" y="1368" width="40" height="40" as="geometry" />
        </mxCell>
        <mxCell id="ZmpdYYW-7Tk491ilo6hp-174" value="부서명" style="ellipse;whiteSpace=wrap;html=1;align=center;fontStyle=0" vertex="1" parent="1">
          <mxGeometry x="432.5" y="1368" width="40" height="40" as="geometry" />
        </mxCell>
        <mxCell id="ZmpdYYW-7Tk491ilo6hp-175" value="인원" style="ellipse;whiteSpace=wrap;html=1;align=center;fontStyle=0" vertex="1" parent="1">
          <mxGeometry x="477.5" y="1368" width="40" height="40" as="geometry" />
        </mxCell>
        <mxCell id="ZmpdYYW-7Tk491ilo6hp-177" value="&lt;u&gt;부서ID&lt;br&gt;(PK)&lt;br&gt;&lt;/u&gt;" style="ellipse;whiteSpace=wrap;html=1;align=center;fontStyle=0" vertex="1" parent="1">
          <mxGeometry x="387.5" y="1368" width="40" height="40" as="geometry" />
        </mxCell>
        <mxCell id="ZmpdYYW-7Tk491ilo6hp-178" value="부서ID&lt;br&gt;(FK)" style="ellipse;whiteSpace=wrap;html=1;align=center;fontStyle=0" vertex="1" parent="1">
          <mxGeometry x="70" y="1368" width="40" height="40" as="geometry" />
        </mxCell>
        <mxCell id="ZmpdYYW-7Tk491ilo6hp-205" value="" style="edgeStyle=orthogonalEdgeStyle;rounded=0;orthogonalLoop=1;jettySize=auto;html=1;endArrow=ERmandOne;endFill=0;startArrow=ERoneToMany;startFill=0;" edge="1" parent="1" source="ZmpdYYW-7Tk491ilo6hp-179" target="ZmpdYYW-7Tk491ilo6hp-192">
          <mxGeometry relative="1" as="geometry" />
        </mxCell>
        <mxCell id="ZmpdYYW-7Tk491ilo6hp-179" value="직원" style="shape=table;startSize=30;container=1;collapsible=1;childLayout=tableLayout;fixedRows=1;rowLines=0;fontStyle=1;align=center;resizeLast=1;html=1;" vertex="1" parent="1">
          <mxGeometry x="580" y="1298" width="180" height="180" as="geometry" />
        </mxCell>
        <mxCell id="ZmpdYYW-7Tk491ilo6hp-180" value="" style="shape=tableRow;horizontal=0;startSize=0;swimlaneHead=0;swimlaneBody=0;fillColor=none;collapsible=0;dropTarget=0;points=[[0,0.5],[1,0.5]];portConstraint=eastwest;top=0;left=0;right=0;bottom=1;" vertex="1" parent="ZmpdYYW-7Tk491ilo6hp-179">
          <mxGeometry y="30" width="180" height="30" as="geometry" />
        </mxCell>
        <mxCell id="ZmpdYYW-7Tk491ilo6hp-181" value="PK" style="shape=partialRectangle;connectable=0;fillColor=none;top=0;left=0;bottom=0;right=0;fontStyle=1;overflow=hidden;whiteSpace=wrap;html=1;" vertex="1" parent="ZmpdYYW-7Tk491ilo6hp-180">
          <mxGeometry width="30" height="30" as="geometry">
            <mxRectangle width="30" height="30" as="alternateBounds" />
          </mxGeometry>
        </mxCell>
        <mxCell id="ZmpdYYW-7Tk491ilo6hp-182" value="사번" style="shape=partialRectangle;connectable=0;fillColor=none;top=0;left=0;bottom=0;right=0;align=left;spacingLeft=6;fontStyle=5;overflow=hidden;whiteSpace=wrap;html=1;" vertex="1" parent="ZmpdYYW-7Tk491ilo6hp-180">
          <mxGeometry x="30" width="150" height="30" as="geometry">
            <mxRectangle width="150" height="30" as="alternateBounds" />
          </mxGeometry>
        </mxCell>
        <mxCell id="ZmpdYYW-7Tk491ilo6hp-208" value="" style="shape=tableRow;horizontal=0;startSize=0;swimlaneHead=0;swimlaneBody=0;fillColor=none;collapsible=0;dropTarget=0;points=[[0,0.5],[1,0.5]];portConstraint=eastwest;top=0;left=0;right=0;bottom=1;" vertex="1" parent="ZmpdYYW-7Tk491ilo6hp-179">
          <mxGeometry y="60" width="180" height="30" as="geometry" />
        </mxCell>
        <mxCell id="ZmpdYYW-7Tk491ilo6hp-209" value="FK" style="shape=partialRectangle;connectable=0;fillColor=none;top=0;left=0;bottom=0;right=0;fontStyle=1;overflow=hidden;whiteSpace=wrap;html=1;" vertex="1" parent="ZmpdYYW-7Tk491ilo6hp-208">
          <mxGeometry width="30" height="30" as="geometry">
            <mxRectangle width="30" height="30" as="alternateBounds" />
          </mxGeometry>
        </mxCell>
        <mxCell id="ZmpdYYW-7Tk491ilo6hp-210" value="부서 ID" style="shape=partialRectangle;connectable=0;fillColor=none;top=0;left=0;bottom=0;right=0;align=left;spacingLeft=6;fontStyle=5;overflow=hidden;whiteSpace=wrap;html=1;" vertex="1" parent="ZmpdYYW-7Tk491ilo6hp-208">
          <mxGeometry x="30" width="150" height="30" as="geometry">
            <mxRectangle width="150" height="30" as="alternateBounds" />
          </mxGeometry>
        </mxCell>
        <mxCell id="ZmpdYYW-7Tk491ilo6hp-183" value="" style="shape=tableRow;horizontal=0;startSize=0;swimlaneHead=0;swimlaneBody=0;fillColor=none;collapsible=0;dropTarget=0;points=[[0,0.5],[1,0.5]];portConstraint=eastwest;top=0;left=0;right=0;bottom=0;" vertex="1" parent="ZmpdYYW-7Tk491ilo6hp-179">
          <mxGeometry y="90" width="180" height="30" as="geometry" />
        </mxCell>
        <mxCell id="ZmpdYYW-7Tk491ilo6hp-184" value="" style="shape=partialRectangle;connectable=0;fillColor=none;top=0;left=0;bottom=0;right=0;editable=1;overflow=hidden;whiteSpace=wrap;html=1;" vertex="1" parent="ZmpdYYW-7Tk491ilo6hp-183">
          <mxGeometry width="30" height="30" as="geometry">
            <mxRectangle width="30" height="30" as="alternateBounds" />
          </mxGeometry>
        </mxCell>
        <mxCell id="ZmpdYYW-7Tk491ilo6hp-185" value="이름" style="shape=partialRectangle;connectable=0;fillColor=none;top=0;left=0;bottom=0;right=0;align=left;spacingLeft=6;overflow=hidden;whiteSpace=wrap;html=1;" vertex="1" parent="ZmpdYYW-7Tk491ilo6hp-183">
          <mxGeometry x="30" width="150" height="30" as="geometry">
            <mxRectangle width="150" height="30" as="alternateBounds" />
          </mxGeometry>
        </mxCell>
        <mxCell id="ZmpdYYW-7Tk491ilo6hp-186" value="" style="shape=tableRow;horizontal=0;startSize=0;swimlaneHead=0;swimlaneBody=0;fillColor=none;collapsible=0;dropTarget=0;points=[[0,0.5],[1,0.5]];portConstraint=eastwest;top=0;left=0;right=0;bottom=0;" vertex="1" parent="ZmpdYYW-7Tk491ilo6hp-179">
          <mxGeometry y="120" width="180" height="30" as="geometry" />
        </mxCell>
        <mxCell id="ZmpdYYW-7Tk491ilo6hp-187" value="" style="shape=partialRectangle;connectable=0;fillColor=none;top=0;left=0;bottom=0;right=0;editable=1;overflow=hidden;whiteSpace=wrap;html=1;" vertex="1" parent="ZmpdYYW-7Tk491ilo6hp-186">
          <mxGeometry width="30" height="30" as="geometry">
            <mxRectangle width="30" height="30" as="alternateBounds" />
          </mxGeometry>
        </mxCell>
        <mxCell id="ZmpdYYW-7Tk491ilo6hp-188" value="직책" style="shape=partialRectangle;connectable=0;fillColor=none;top=0;left=0;bottom=0;right=0;align=left;spacingLeft=6;overflow=hidden;whiteSpace=wrap;html=1;" vertex="1" parent="ZmpdYYW-7Tk491ilo6hp-186">
          <mxGeometry x="30" width="150" height="30" as="geometry">
            <mxRectangle width="150" height="30" as="alternateBounds" />
          </mxGeometry>
        </mxCell>
        <mxCell id="ZmpdYYW-7Tk491ilo6hp-189" value="" style="shape=tableRow;horizontal=0;startSize=0;swimlaneHead=0;swimlaneBody=0;fillColor=none;collapsible=0;dropTarget=0;points=[[0,0.5],[1,0.5]];portConstraint=eastwest;top=0;left=0;right=0;bottom=0;" vertex="1" parent="ZmpdYYW-7Tk491ilo6hp-179">
          <mxGeometry y="150" width="180" height="30" as="geometry" />
        </mxCell>
        <mxCell id="ZmpdYYW-7Tk491ilo6hp-190" value="" style="shape=partialRectangle;connectable=0;fillColor=none;top=0;left=0;bottom=0;right=0;editable=1;overflow=hidden;whiteSpace=wrap;html=1;" vertex="1" parent="ZmpdYYW-7Tk491ilo6hp-189">
          <mxGeometry width="30" height="30" as="geometry">
            <mxRectangle width="30" height="30" as="alternateBounds" />
          </mxGeometry>
        </mxCell>
        <mxCell id="ZmpdYYW-7Tk491ilo6hp-191" value="연락처" style="shape=partialRectangle;connectable=0;fillColor=none;top=0;left=0;bottom=0;right=0;align=left;spacingLeft=6;overflow=hidden;whiteSpace=wrap;html=1;" vertex="1" parent="ZmpdYYW-7Tk491ilo6hp-189">
          <mxGeometry x="30" width="150" height="30" as="geometry">
            <mxRectangle width="150" height="30" as="alternateBounds" />
          </mxGeometry>
        </mxCell>
        <mxCell id="ZmpdYYW-7Tk491ilo6hp-192" value="부서" style="shape=table;startSize=30;container=1;collapsible=1;childLayout=tableLayout;fixedRows=1;rowLines=0;fontStyle=1;align=center;resizeLast=1;html=1;" vertex="1" parent="1">
          <mxGeometry x="840" y="1313" width="180" height="150" as="geometry" />
        </mxCell>
        <mxCell id="ZmpdYYW-7Tk491ilo6hp-193" value="" style="shape=tableRow;horizontal=0;startSize=0;swimlaneHead=0;swimlaneBody=0;fillColor=none;collapsible=0;dropTarget=0;points=[[0,0.5],[1,0.5]];portConstraint=eastwest;top=0;left=0;right=0;bottom=1;" vertex="1" parent="ZmpdYYW-7Tk491ilo6hp-192">
          <mxGeometry y="30" width="180" height="30" as="geometry" />
        </mxCell>
        <mxCell id="ZmpdYYW-7Tk491ilo6hp-194" value="PK" style="shape=partialRectangle;connectable=0;fillColor=none;top=0;left=0;bottom=0;right=0;fontStyle=1;overflow=hidden;whiteSpace=wrap;html=1;" vertex="1" parent="ZmpdYYW-7Tk491ilo6hp-193">
          <mxGeometry width="30" height="30" as="geometry">
            <mxRectangle width="30" height="30" as="alternateBounds" />
          </mxGeometry>
        </mxCell>
        <mxCell id="ZmpdYYW-7Tk491ilo6hp-195" value="부서ID" style="shape=partialRectangle;connectable=0;fillColor=none;top=0;left=0;bottom=0;right=0;align=left;spacingLeft=6;fontStyle=5;overflow=hidden;whiteSpace=wrap;html=1;" vertex="1" parent="ZmpdYYW-7Tk491ilo6hp-193">
          <mxGeometry x="30" width="150" height="30" as="geometry">
            <mxRectangle width="150" height="30" as="alternateBounds" />
          </mxGeometry>
        </mxCell>
        <mxCell id="ZmpdYYW-7Tk491ilo6hp-196" value="" style="shape=tableRow;horizontal=0;startSize=0;swimlaneHead=0;swimlaneBody=0;fillColor=none;collapsible=0;dropTarget=0;points=[[0,0.5],[1,0.5]];portConstraint=eastwest;top=0;left=0;right=0;bottom=0;" vertex="1" parent="ZmpdYYW-7Tk491ilo6hp-192">
          <mxGeometry y="60" width="180" height="30" as="geometry" />
        </mxCell>
        <mxCell id="ZmpdYYW-7Tk491ilo6hp-197" value="" style="shape=partialRectangle;connectable=0;fillColor=none;top=0;left=0;bottom=0;right=0;editable=1;overflow=hidden;whiteSpace=wrap;html=1;" vertex="1" parent="ZmpdYYW-7Tk491ilo6hp-196">
          <mxGeometry width="30" height="30" as="geometry">
            <mxRectangle width="30" height="30" as="alternateBounds" />
          </mxGeometry>
        </mxCell>
        <mxCell id="ZmpdYYW-7Tk491ilo6hp-198" value="부서명" style="shape=partialRectangle;connectable=0;fillColor=none;top=0;left=0;bottom=0;right=0;align=left;spacingLeft=6;overflow=hidden;whiteSpace=wrap;html=1;" vertex="1" parent="ZmpdYYW-7Tk491ilo6hp-196">
          <mxGeometry x="30" width="150" height="30" as="geometry">
            <mxRectangle width="150" height="30" as="alternateBounds" />
          </mxGeometry>
        </mxCell>
        <mxCell id="ZmpdYYW-7Tk491ilo6hp-199" value="" style="shape=tableRow;horizontal=0;startSize=0;swimlaneHead=0;swimlaneBody=0;fillColor=none;collapsible=0;dropTarget=0;points=[[0,0.5],[1,0.5]];portConstraint=eastwest;top=0;left=0;right=0;bottom=0;" vertex="1" parent="ZmpdYYW-7Tk491ilo6hp-192">
          <mxGeometry y="90" width="180" height="30" as="geometry" />
        </mxCell>
        <mxCell id="ZmpdYYW-7Tk491ilo6hp-200" value="" style="shape=partialRectangle;connectable=0;fillColor=none;top=0;left=0;bottom=0;right=0;editable=1;overflow=hidden;whiteSpace=wrap;html=1;" vertex="1" parent="ZmpdYYW-7Tk491ilo6hp-199">
          <mxGeometry width="30" height="30" as="geometry">
            <mxRectangle width="30" height="30" as="alternateBounds" />
          </mxGeometry>
        </mxCell>
        <mxCell id="ZmpdYYW-7Tk491ilo6hp-201" value="인원" style="shape=partialRectangle;connectable=0;fillColor=none;top=0;left=0;bottom=0;right=0;align=left;spacingLeft=6;overflow=hidden;whiteSpace=wrap;html=1;" vertex="1" parent="ZmpdYYW-7Tk491ilo6hp-199">
          <mxGeometry x="30" width="150" height="30" as="geometry">
            <mxRectangle width="150" height="30" as="alternateBounds" />
          </mxGeometry>
        </mxCell>
        <mxCell id="ZmpdYYW-7Tk491ilo6hp-202" value="" style="shape=tableRow;horizontal=0;startSize=0;swimlaneHead=0;swimlaneBody=0;fillColor=none;collapsible=0;dropTarget=0;points=[[0,0.5],[1,0.5]];portConstraint=eastwest;top=0;left=0;right=0;bottom=0;" vertex="1" parent="ZmpdYYW-7Tk491ilo6hp-192">
          <mxGeometry y="120" width="180" height="30" as="geometry" />
        </mxCell>
        <mxCell id="ZmpdYYW-7Tk491ilo6hp-203" value="" style="shape=partialRectangle;connectable=0;fillColor=none;top=0;left=0;bottom=0;right=0;editable=1;overflow=hidden;whiteSpace=wrap;html=1;" vertex="1" parent="ZmpdYYW-7Tk491ilo6hp-202">
          <mxGeometry width="30" height="30" as="geometry">
            <mxRectangle width="30" height="30" as="alternateBounds" />
          </mxGeometry>
        </mxCell>
        <mxCell id="ZmpdYYW-7Tk491ilo6hp-204" value="Row 3" style="shape=partialRectangle;connectable=0;fillColor=none;top=0;left=0;bottom=0;right=0;align=left;spacingLeft=6;overflow=hidden;whiteSpace=wrap;html=1;" vertex="1" parent="ZmpdYYW-7Tk491ilo6hp-202">
          <mxGeometry x="30" width="150" height="30" as="geometry">
            <mxRectangle width="150" height="30" as="alternateBounds" />
          </mxGeometry>
        </mxCell>
        <mxCell id="ZmpdYYW-7Tk491ilo6hp-206" value="상위/부모" style="text;html=1;align=center;verticalAlign=middle;resizable=0;points=[];autosize=1;strokeColor=none;fillColor=none;" vertex="1" parent="1">
          <mxGeometry x="830" y="1258" width="70" height="30" as="geometry" />
        </mxCell>
        <mxCell id="ZmpdYYW-7Tk491ilo6hp-207" value="하위/자식" style="text;html=1;align=center;verticalAlign=middle;resizable=0;points=[];autosize=1;strokeColor=none;fillColor=none;" vertex="1" parent="1">
          <mxGeometry x="570" y="1258" width="70" height="30" as="geometry" />
        </mxCell>
        <mxCell id="ZmpdYYW-7Tk491ilo6hp-220" value="" style="edgeStyle=orthogonalEdgeStyle;rounded=0;orthogonalLoop=1;jettySize=auto;html=1;endArrow=none;endFill=0;" edge="1" parent="1" source="ZmpdYYW-7Tk491ilo6hp-211" target="ZmpdYYW-7Tk491ilo6hp-213">
          <mxGeometry relative="1" as="geometry" />
        </mxCell>
        <mxCell id="ZmpdYYW-7Tk491ilo6hp-211" value="컴퓨터 본체" style="rounded=0;whiteSpace=wrap;html=1;" vertex="1" parent="1">
          <mxGeometry x="35" y="1555" width="120" height="60" as="geometry" />
        </mxCell>
        <mxCell id="ZmpdYYW-7Tk491ilo6hp-221" value="" style="edgeStyle=orthogonalEdgeStyle;rounded=0;orthogonalLoop=1;jettySize=auto;html=1;endArrow=none;endFill=0;" edge="1" parent="1" source="ZmpdYYW-7Tk491ilo6hp-212" target="ZmpdYYW-7Tk491ilo6hp-213">
          <mxGeometry relative="1" as="geometry" />
        </mxCell>
        <mxCell id="ZmpdYYW-7Tk491ilo6hp-212" value="모니터" style="rounded=0;whiteSpace=wrap;html=1;" vertex="1" parent="1">
          <mxGeometry x="392.5" y="1555" width="120" height="60" as="geometry" />
        </mxCell>
        <mxCell id="ZmpdYYW-7Tk491ilo6hp-213" value="연결" style="rhombus;whiteSpace=wrap;html=1;" vertex="1" parent="1">
          <mxGeometry x="225" y="1545" width="80" height="80" as="geometry" />
        </mxCell>
        <mxCell id="ZmpdYYW-7Tk491ilo6hp-214" value="Brand&lt;br&gt;Name" style="ellipse;whiteSpace=wrap;html=1;align=center;fontStyle=0" vertex="1" parent="1">
          <mxGeometry x="77.5" y="1639" width="40" height="40" as="geometry" />
        </mxCell>
        <mxCell id="ZmpdYYW-7Tk491ilo6hp-215" value="본체일련번호" style="ellipse;whiteSpace=wrap;html=1;align=center;fontStyle=0" vertex="1" parent="1">
          <mxGeometry x="30" y="1639" width="40" height="40" as="geometry" />
        </mxCell>
        <mxCell id="ZmpdYYW-7Tk491ilo6hp-216" value="상세&lt;br&gt;정보" style="ellipse;whiteSpace=wrap;html=1;align=center;fontStyle=0" vertex="1" parent="1">
          <mxGeometry x="125" y="1639" width="40" height="40" as="geometry" />
        </mxCell>
        <mxCell id="ZmpdYYW-7Tk491ilo6hp-217" value="&lt;u&gt;모니터&lt;br&gt;ID&lt;/u&gt;" style="ellipse;whiteSpace=wrap;html=1;align=center;fontStyle=0" vertex="1" parent="1">
          <mxGeometry x="385" y="1639" width="40" height="40" as="geometry" />
        </mxCell>
        <mxCell id="ZmpdYYW-7Tk491ilo6hp-218" value="Brand&lt;br style=&quot;border-color: var(--border-color);&quot;&gt;Name" style="ellipse;whiteSpace=wrap;html=1;align=center;fontStyle=0" vertex="1" parent="1">
          <mxGeometry x="432.5" y="1639" width="40" height="40" as="geometry" />
        </mxCell>
        <mxCell id="ZmpdYYW-7Tk491ilo6hp-219" value="상세&lt;br&gt;정보" style="ellipse;whiteSpace=wrap;html=1;align=center;fontStyle=0" vertex="1" parent="1">
          <mxGeometry x="482.5" y="1639" width="40" height="40" as="geometry" />
        </mxCell>
        <mxCell id="ZmpdYYW-7Tk491ilo6hp-252" value="" style="edgeStyle=orthogonalEdgeStyle;rounded=0;orthogonalLoop=1;jettySize=auto;html=1;endArrow=ERoneToMany;endFill=0;startArrow=ERone;startFill=0;" edge="1" parent="1" source="ZmpdYYW-7Tk491ilo6hp-223" target="ZmpdYYW-7Tk491ilo6hp-239">
          <mxGeometry relative="1" as="geometry" />
        </mxCell>
        <mxCell id="ZmpdYYW-7Tk491ilo6hp-223" value="컴퓨터본체" style="shape=table;startSize=30;container=1;collapsible=1;childLayout=tableLayout;fixedRows=1;rowLines=0;fontStyle=1;align=center;resizeLast=1;html=1;" vertex="1" parent="1">
          <mxGeometry x="575" y="1555" width="180" height="150" as="geometry" />
        </mxCell>
        <mxCell id="ZmpdYYW-7Tk491ilo6hp-224" value="" style="shape=tableRow;horizontal=0;startSize=0;swimlaneHead=0;swimlaneBody=0;fillColor=none;collapsible=0;dropTarget=0;points=[[0,0.5],[1,0.5]];portConstraint=eastwest;top=0;left=0;right=0;bottom=1;" vertex="1" parent="ZmpdYYW-7Tk491ilo6hp-223">
          <mxGeometry y="30" width="180" height="30" as="geometry" />
        </mxCell>
        <mxCell id="ZmpdYYW-7Tk491ilo6hp-225" value="PK" style="shape=partialRectangle;connectable=0;fillColor=none;top=0;left=0;bottom=0;right=0;fontStyle=1;overflow=hidden;whiteSpace=wrap;html=1;" vertex="1" parent="ZmpdYYW-7Tk491ilo6hp-224">
          <mxGeometry width="30" height="30" as="geometry">
            <mxRectangle width="30" height="30" as="alternateBounds" />
          </mxGeometry>
        </mxCell>
        <mxCell id="ZmpdYYW-7Tk491ilo6hp-226" value="본체 일련번호" style="shape=partialRectangle;connectable=0;fillColor=none;top=0;left=0;bottom=0;right=0;align=left;spacingLeft=6;fontStyle=5;overflow=hidden;whiteSpace=wrap;html=1;" vertex="1" parent="ZmpdYYW-7Tk491ilo6hp-224">
          <mxGeometry x="30" width="150" height="30" as="geometry">
            <mxRectangle width="150" height="30" as="alternateBounds" />
          </mxGeometry>
        </mxCell>
        <mxCell id="ZmpdYYW-7Tk491ilo6hp-227" value="" style="shape=tableRow;horizontal=0;startSize=0;swimlaneHead=0;swimlaneBody=0;fillColor=none;collapsible=0;dropTarget=0;points=[[0,0.5],[1,0.5]];portConstraint=eastwest;top=0;left=0;right=0;bottom=0;" vertex="1" parent="ZmpdYYW-7Tk491ilo6hp-223">
          <mxGeometry y="60" width="180" height="30" as="geometry" />
        </mxCell>
        <mxCell id="ZmpdYYW-7Tk491ilo6hp-228" value="" style="shape=partialRectangle;connectable=0;fillColor=none;top=0;left=0;bottom=0;right=0;editable=1;overflow=hidden;whiteSpace=wrap;html=1;" vertex="1" parent="ZmpdYYW-7Tk491ilo6hp-227">
          <mxGeometry width="30" height="30" as="geometry">
            <mxRectangle width="30" height="30" as="alternateBounds" />
          </mxGeometry>
        </mxCell>
        <mxCell id="ZmpdYYW-7Tk491ilo6hp-229" value="BrandName" style="shape=partialRectangle;connectable=0;fillColor=none;top=0;left=0;bottom=0;right=0;align=left;spacingLeft=6;overflow=hidden;whiteSpace=wrap;html=1;" vertex="1" parent="ZmpdYYW-7Tk491ilo6hp-227">
          <mxGeometry x="30" width="150" height="30" as="geometry">
            <mxRectangle width="150" height="30" as="alternateBounds" />
          </mxGeometry>
        </mxCell>
        <mxCell id="ZmpdYYW-7Tk491ilo6hp-230" value="" style="shape=tableRow;horizontal=0;startSize=0;swimlaneHead=0;swimlaneBody=0;fillColor=none;collapsible=0;dropTarget=0;points=[[0,0.5],[1,0.5]];portConstraint=eastwest;top=0;left=0;right=0;bottom=0;" vertex="1" parent="ZmpdYYW-7Tk491ilo6hp-223">
          <mxGeometry y="90" width="180" height="30" as="geometry" />
        </mxCell>
        <mxCell id="ZmpdYYW-7Tk491ilo6hp-231" value="" style="shape=partialRectangle;connectable=0;fillColor=none;top=0;left=0;bottom=0;right=0;editable=1;overflow=hidden;whiteSpace=wrap;html=1;" vertex="1" parent="ZmpdYYW-7Tk491ilo6hp-230">
          <mxGeometry width="30" height="30" as="geometry">
            <mxRectangle width="30" height="30" as="alternateBounds" />
          </mxGeometry>
        </mxCell>
        <mxCell id="ZmpdYYW-7Tk491ilo6hp-232" value="상세정보" style="shape=partialRectangle;connectable=0;fillColor=none;top=0;left=0;bottom=0;right=0;align=left;spacingLeft=6;overflow=hidden;whiteSpace=wrap;html=1;" vertex="1" parent="ZmpdYYW-7Tk491ilo6hp-230">
          <mxGeometry x="30" width="150" height="30" as="geometry">
            <mxRectangle width="150" height="30" as="alternateBounds" />
          </mxGeometry>
        </mxCell>
        <mxCell id="ZmpdYYW-7Tk491ilo6hp-233" value="" style="shape=tableRow;horizontal=0;startSize=0;swimlaneHead=0;swimlaneBody=0;fillColor=none;collapsible=0;dropTarget=0;points=[[0,0.5],[1,0.5]];portConstraint=eastwest;top=0;left=0;right=0;bottom=0;" vertex="1" parent="ZmpdYYW-7Tk491ilo6hp-223">
          <mxGeometry y="120" width="180" height="30" as="geometry" />
        </mxCell>
        <mxCell id="ZmpdYYW-7Tk491ilo6hp-234" value="" style="shape=partialRectangle;connectable=0;fillColor=none;top=0;left=0;bottom=0;right=0;editable=1;overflow=hidden;whiteSpace=wrap;html=1;" vertex="1" parent="ZmpdYYW-7Tk491ilo6hp-233">
          <mxGeometry width="30" height="30" as="geometry">
            <mxRectangle width="30" height="30" as="alternateBounds" />
          </mxGeometry>
        </mxCell>
        <mxCell id="ZmpdYYW-7Tk491ilo6hp-235" value="Row 3" style="shape=partialRectangle;connectable=0;fillColor=none;top=0;left=0;bottom=0;right=0;align=left;spacingLeft=6;overflow=hidden;whiteSpace=wrap;html=1;" vertex="1" parent="ZmpdYYW-7Tk491ilo6hp-233">
          <mxGeometry x="30" width="150" height="30" as="geometry">
            <mxRectangle width="150" height="30" as="alternateBounds" />
          </mxGeometry>
        </mxCell>
        <mxCell id="ZmpdYYW-7Tk491ilo6hp-239" value="모니터" style="shape=table;startSize=30;container=1;collapsible=1;childLayout=tableLayout;fixedRows=1;rowLines=0;fontStyle=1;align=center;resizeLast=1;html=1;" vertex="1" parent="1">
          <mxGeometry x="835" y="1540" width="180" height="180" as="geometry" />
        </mxCell>
        <mxCell id="ZmpdYYW-7Tk491ilo6hp-240" value="" style="shape=tableRow;horizontal=0;startSize=0;swimlaneHead=0;swimlaneBody=0;fillColor=none;collapsible=0;dropTarget=0;points=[[0,0.5],[1,0.5]];portConstraint=eastwest;top=0;left=0;right=0;bottom=1;" vertex="1" parent="ZmpdYYW-7Tk491ilo6hp-239">
          <mxGeometry y="30" width="180" height="30" as="geometry" />
        </mxCell>
        <mxCell id="ZmpdYYW-7Tk491ilo6hp-241" value="PK" style="shape=partialRectangle;connectable=0;fillColor=none;top=0;left=0;bottom=0;right=0;fontStyle=1;overflow=hidden;whiteSpace=wrap;html=1;" vertex="1" parent="ZmpdYYW-7Tk491ilo6hp-240">
          <mxGeometry width="30" height="30" as="geometry">
            <mxRectangle width="30" height="30" as="alternateBounds" />
          </mxGeometry>
        </mxCell>
        <mxCell id="ZmpdYYW-7Tk491ilo6hp-242" value="모니터 일련번호" style="shape=partialRectangle;connectable=0;fillColor=none;top=0;left=0;bottom=0;right=0;align=left;spacingLeft=6;fontStyle=5;overflow=hidden;whiteSpace=wrap;html=1;" vertex="1" parent="ZmpdYYW-7Tk491ilo6hp-240">
          <mxGeometry x="30" width="150" height="30" as="geometry">
            <mxRectangle width="150" height="30" as="alternateBounds" />
          </mxGeometry>
        </mxCell>
        <mxCell id="ZmpdYYW-7Tk491ilo6hp-253" value="" style="shape=tableRow;horizontal=0;startSize=0;swimlaneHead=0;swimlaneBody=0;fillColor=none;collapsible=0;dropTarget=0;points=[[0,0.5],[1,0.5]];portConstraint=eastwest;top=0;left=0;right=0;bottom=1;" vertex="1" parent="ZmpdYYW-7Tk491ilo6hp-239">
          <mxGeometry y="60" width="180" height="30" as="geometry" />
        </mxCell>
        <mxCell id="ZmpdYYW-7Tk491ilo6hp-254" value="FK" style="shape=partialRectangle;connectable=0;fillColor=none;top=0;left=0;bottom=0;right=0;fontStyle=1;overflow=hidden;whiteSpace=wrap;html=1;" vertex="1" parent="ZmpdYYW-7Tk491ilo6hp-253">
          <mxGeometry width="30" height="30" as="geometry">
            <mxRectangle width="30" height="30" as="alternateBounds" />
          </mxGeometry>
        </mxCell>
        <mxCell id="ZmpdYYW-7Tk491ilo6hp-255" value="본체 일련번호" style="shape=partialRectangle;connectable=0;fillColor=none;top=0;left=0;bottom=0;right=0;align=left;spacingLeft=6;fontStyle=1;overflow=hidden;whiteSpace=wrap;html=1;" vertex="1" parent="ZmpdYYW-7Tk491ilo6hp-253">
          <mxGeometry x="30" width="150" height="30" as="geometry">
            <mxRectangle width="150" height="30" as="alternateBounds" />
          </mxGeometry>
        </mxCell>
        <mxCell id="ZmpdYYW-7Tk491ilo6hp-243" value="" style="shape=tableRow;horizontal=0;startSize=0;swimlaneHead=0;swimlaneBody=0;fillColor=none;collapsible=0;dropTarget=0;points=[[0,0.5],[1,0.5]];portConstraint=eastwest;top=0;left=0;right=0;bottom=0;" vertex="1" parent="ZmpdYYW-7Tk491ilo6hp-239">
          <mxGeometry y="90" width="180" height="30" as="geometry" />
        </mxCell>
        <mxCell id="ZmpdYYW-7Tk491ilo6hp-244" value="" style="shape=partialRectangle;connectable=0;fillColor=none;top=0;left=0;bottom=0;right=0;editable=1;overflow=hidden;whiteSpace=wrap;html=1;" vertex="1" parent="ZmpdYYW-7Tk491ilo6hp-243">
          <mxGeometry width="30" height="30" as="geometry">
            <mxRectangle width="30" height="30" as="alternateBounds" />
          </mxGeometry>
        </mxCell>
        <mxCell id="ZmpdYYW-7Tk491ilo6hp-245" value="BrandName" style="shape=partialRectangle;connectable=0;fillColor=none;top=0;left=0;bottom=0;right=0;align=left;spacingLeft=6;overflow=hidden;whiteSpace=wrap;html=1;" vertex="1" parent="ZmpdYYW-7Tk491ilo6hp-243">
          <mxGeometry x="30" width="150" height="30" as="geometry">
            <mxRectangle width="150" height="30" as="alternateBounds" />
          </mxGeometry>
        </mxCell>
        <mxCell id="ZmpdYYW-7Tk491ilo6hp-246" value="" style="shape=tableRow;horizontal=0;startSize=0;swimlaneHead=0;swimlaneBody=0;fillColor=none;collapsible=0;dropTarget=0;points=[[0,0.5],[1,0.5]];portConstraint=eastwest;top=0;left=0;right=0;bottom=0;" vertex="1" parent="ZmpdYYW-7Tk491ilo6hp-239">
          <mxGeometry y="120" width="180" height="30" as="geometry" />
        </mxCell>
        <mxCell id="ZmpdYYW-7Tk491ilo6hp-247" value="" style="shape=partialRectangle;connectable=0;fillColor=none;top=0;left=0;bottom=0;right=0;editable=1;overflow=hidden;whiteSpace=wrap;html=1;" vertex="1" parent="ZmpdYYW-7Tk491ilo6hp-246">
          <mxGeometry width="30" height="30" as="geometry">
            <mxRectangle width="30" height="30" as="alternateBounds" />
          </mxGeometry>
        </mxCell>
        <mxCell id="ZmpdYYW-7Tk491ilo6hp-248" value="상세정보" style="shape=partialRectangle;connectable=0;fillColor=none;top=0;left=0;bottom=0;right=0;align=left;spacingLeft=6;overflow=hidden;whiteSpace=wrap;html=1;" vertex="1" parent="ZmpdYYW-7Tk491ilo6hp-246">
          <mxGeometry x="30" width="150" height="30" as="geometry">
            <mxRectangle width="150" height="30" as="alternateBounds" />
          </mxGeometry>
        </mxCell>
        <mxCell id="ZmpdYYW-7Tk491ilo6hp-249" value="" style="shape=tableRow;horizontal=0;startSize=0;swimlaneHead=0;swimlaneBody=0;fillColor=none;collapsible=0;dropTarget=0;points=[[0,0.5],[1,0.5]];portConstraint=eastwest;top=0;left=0;right=0;bottom=0;" vertex="1" parent="ZmpdYYW-7Tk491ilo6hp-239">
          <mxGeometry y="150" width="180" height="30" as="geometry" />
        </mxCell>
        <mxCell id="ZmpdYYW-7Tk491ilo6hp-250" value="" style="shape=partialRectangle;connectable=0;fillColor=none;top=0;left=0;bottom=0;right=0;editable=1;overflow=hidden;whiteSpace=wrap;html=1;" vertex="1" parent="ZmpdYYW-7Tk491ilo6hp-249">
          <mxGeometry width="30" height="30" as="geometry">
            <mxRectangle width="30" height="30" as="alternateBounds" />
          </mxGeometry>
        </mxCell>
        <mxCell id="ZmpdYYW-7Tk491ilo6hp-251" value="Row 3" style="shape=partialRectangle;connectable=0;fillColor=none;top=0;left=0;bottom=0;right=0;align=left;spacingLeft=6;overflow=hidden;whiteSpace=wrap;html=1;" vertex="1" parent="ZmpdYYW-7Tk491ilo6hp-249">
          <mxGeometry x="30" width="150" height="30" as="geometry">
            <mxRectangle width="150" height="30" as="alternateBounds" />
          </mxGeometry>
        </mxCell>
        <mxCell id="ZmpdYYW-7Tk491ilo6hp-256" value="" style="edgeStyle=orthogonalEdgeStyle;rounded=0;orthogonalLoop=1;jettySize=auto;html=1;endArrow=none;endFill=0;" edge="1" parent="1" source="ZmpdYYW-7Tk491ilo6hp-257" target="ZmpdYYW-7Tk491ilo6hp-260">
          <mxGeometry relative="1" as="geometry" />
        </mxCell>
        <mxCell id="ZmpdYYW-7Tk491ilo6hp-257" value="강의" style="rounded=0;whiteSpace=wrap;html=1;" vertex="1" parent="1">
          <mxGeometry x="30" y="1900" width="120" height="60" as="geometry" />
        </mxCell>
        <mxCell id="ZmpdYYW-7Tk491ilo6hp-258" value="학생" style="rounded=0;whiteSpace=wrap;html=1;" vertex="1" parent="1">
          <mxGeometry x="550" y="1900" width="120" height="60" as="geometry" />
        </mxCell>
        <mxCell id="ZmpdYYW-7Tk491ilo6hp-259" value="" style="edgeStyle=orthogonalEdgeStyle;rounded=0;orthogonalLoop=1;jettySize=auto;html=1;endArrow=none;endFill=0;" edge="1" parent="1" source="ZmpdYYW-7Tk491ilo6hp-260" target="ZmpdYYW-7Tk491ilo6hp-258">
          <mxGeometry relative="1" as="geometry" />
        </mxCell>
        <mxCell id="ZmpdYYW-7Tk491ilo6hp-260" value="수강&lt;br&gt;신청" style="rhombus;whiteSpace=wrap;html=1;" vertex="1" parent="1">
          <mxGeometry x="320" y="1890" width="80" height="80" as="geometry" />
        </mxCell>
        <mxCell id="ZmpdYYW-7Tk491ilo6hp-298" value="1" style="text;html=1;align=center;verticalAlign=middle;resizable=0;points=[];autosize=1;strokeColor=none;fillColor=none;" vertex="1" parent="1">
          <mxGeometry x="145" y="1898" width="30" height="30" as="geometry" />
        </mxCell>
        <mxCell id="ZmpdYYW-7Tk491ilo6hp-299" value="N" style="text;html=1;align=center;verticalAlign=middle;resizable=0;points=[];autosize=1;strokeColor=none;fillColor=none;" vertex="1" parent="1">
          <mxGeometry x="300" y="1898" width="30" height="30" as="geometry" />
        </mxCell>
        <mxCell id="ZmpdYYW-7Tk491ilo6hp-300" value="1" style="text;html=1;align=center;verticalAlign=middle;resizable=0;points=[];autosize=1;strokeColor=none;fillColor=none;" vertex="1" parent="1">
          <mxGeometry x="512.5" y="1898" width="30" height="30" as="geometry" />
        </mxCell>
        <mxCell id="ZmpdYYW-7Tk491ilo6hp-301" value="M" style="text;html=1;align=center;verticalAlign=middle;resizable=0;points=[];autosize=1;strokeColor=none;fillColor=none;" vertex="1" parent="1">
          <mxGeometry x="385" y="1898" width="30" height="30" as="geometry" />
        </mxCell>
        <mxCell id="ZmpdYYW-7Tk491ilo6hp-302" value="&lt;u&gt;L_ID&lt;br&gt;(PK)&lt;/u&gt;" style="ellipse;whiteSpace=wrap;html=1;align=center;" vertex="1" parent="1">
          <mxGeometry x="7.5" y="2000" width="45" height="40" as="geometry" />
        </mxCell>
        <mxCell id="ZmpdYYW-7Tk491ilo6hp-304" value="강의명" style="ellipse;whiteSpace=wrap;html=1;align=center;" vertex="1" parent="1">
          <mxGeometry x="60" y="2000" width="45" height="40" as="geometry" />
        </mxCell>
        <mxCell id="ZmpdYYW-7Tk491ilo6hp-305" value="강의&lt;br&gt;장명" style="ellipse;whiteSpace=wrap;html=1;align=center;" vertex="1" parent="1">
          <mxGeometry x="112.5" y="2000" width="45" height="40" as="geometry" />
        </mxCell>
        <mxCell id="ZmpdYYW-7Tk491ilo6hp-306" value="강사명" style="ellipse;whiteSpace=wrap;html=1;align=center;" vertex="1" parent="1">
          <mxGeometry x="167.5" y="2000" width="45" height="40" as="geometry" />
        </mxCell>
        <mxCell id="ZmpdYYW-7Tk491ilo6hp-307" value="강의시간" style="ellipse;whiteSpace=wrap;html=1;align=center;" vertex="1" parent="1">
          <mxGeometry x="217.5" y="2000" width="45" height="40" as="geometry" />
        </mxCell>
        <mxCell id="ZmpdYYW-7Tk491ilo6hp-308" value="&lt;u&gt;S_ID&lt;br&gt;(PK)&lt;/u&gt;" style="ellipse;whiteSpace=wrap;html=1;align=center;" vertex="1" parent="1">
          <mxGeometry x="527.5" y="1990" width="45" height="40" as="geometry" />
        </mxCell>
        <mxCell id="ZmpdYYW-7Tk491ilo6hp-309" value="이름" style="ellipse;whiteSpace=wrap;html=1;align=center;" vertex="1" parent="1">
          <mxGeometry x="580" y="1990" width="45" height="40" as="geometry" />
        </mxCell>
        <mxCell id="ZmpdYYW-7Tk491ilo6hp-310" value="나이" style="ellipse;whiteSpace=wrap;html=1;align=center;" vertex="1" parent="1">
          <mxGeometry x="630" y="1990" width="45" height="40" as="geometry" />
        </mxCell>
        <mxCell id="ZmpdYYW-7Tk491ilo6hp-311" value="연락처" style="ellipse;whiteSpace=wrap;html=1;align=center;" vertex="1" parent="1">
          <mxGeometry x="680" y="1990" width="45" height="40" as="geometry" />
        </mxCell>
        <mxCell id="ZmpdYYW-7Tk491ilo6hp-312" value="" style="endArrow=none;html=1;rounded=0;exitX=0.592;exitY=-0.021;exitDx=0;exitDy=0;exitPerimeter=0;entryX=0.463;entryY=1.071;entryDx=0;entryDy=0;entryPerimeter=0;" edge="1" parent="1" source="ZmpdYYW-7Tk491ilo6hp-302" target="ZmpdYYW-7Tk491ilo6hp-257">
          <mxGeometry width="50" height="50" relative="1" as="geometry">
            <mxPoint x="350" y="2040" as="sourcePoint" />
            <mxPoint x="400" y="1990" as="targetPoint" />
          </mxGeometry>
        </mxCell>
        <mxCell id="ZmpdYYW-7Tk491ilo6hp-313" value="" style="endArrow=none;html=1;rounded=0;exitX=0.5;exitY=0;exitDx=0;exitDy=0;entryX=0.468;entryY=1.081;entryDx=0;entryDy=0;entryPerimeter=0;" edge="1" parent="1" source="ZmpdYYW-7Tk491ilo6hp-304" target="ZmpdYYW-7Tk491ilo6hp-257">
          <mxGeometry width="50" height="50" relative="1" as="geometry">
            <mxPoint x="44" y="2009" as="sourcePoint" />
            <mxPoint x="96" y="1974" as="targetPoint" />
          </mxGeometry>
        </mxCell>
        <mxCell id="ZmpdYYW-7Tk491ilo6hp-314" value="" style="endArrow=none;html=1;rounded=0;exitX=0.354;exitY=-0.079;exitDx=0;exitDy=0;entryX=0.458;entryY=1.024;entryDx=0;entryDy=0;entryPerimeter=0;exitPerimeter=0;" edge="1" parent="1">
          <mxGeometry width="50" height="50" relative="1" as="geometry">
            <mxPoint x="129.43000000000006" y="1999.8400000000001" as="sourcePoint" />
            <mxPoint x="85.96000000000004" y="1964.44" as="targetPoint" />
          </mxGeometry>
        </mxCell>
        <mxCell id="ZmpdYYW-7Tk491ilo6hp-316" value="" style="endArrow=none;html=1;rounded=0;exitX=0.3;exitY=-0.021;exitDx=0;exitDy=0;entryX=0.468;entryY=1.052;entryDx=0;entryDy=0;entryPerimeter=0;exitPerimeter=0;" edge="1" parent="1" source="ZmpdYYW-7Tk491ilo6hp-306" target="ZmpdYYW-7Tk491ilo6hp-257">
          <mxGeometry width="50" height="50" relative="1" as="geometry">
            <mxPoint x="139.43000000000006" y="2009.8400000000001" as="sourcePoint" />
            <mxPoint x="95.96000000000004" y="1974.44" as="targetPoint" />
          </mxGeometry>
        </mxCell>
        <mxCell id="ZmpdYYW-7Tk491ilo6hp-317" value="" style="endArrow=none;html=1;rounded=0;exitX=0.278;exitY=0;exitDx=0;exitDy=0;exitPerimeter=0;" edge="1" parent="1" source="ZmpdYYW-7Tk491ilo6hp-307">
          <mxGeometry width="50" height="50" relative="1" as="geometry">
            <mxPoint x="191" y="2009" as="sourcePoint" />
            <mxPoint x="85" y="1964" as="targetPoint" />
          </mxGeometry>
        </mxCell>
        <mxCell id="ZmpdYYW-7Tk491ilo6hp-318" value="&amp;nbsp;누가? 무엇을?" style="text;html=1;align=center;verticalAlign=middle;resizable=0;points=[];autosize=1;strokeColor=none;fillColor=none;" vertex="1" parent="1">
          <mxGeometry x="385" y="1950" width="100" height="30" as="geometry" />
        </mxCell>
        <mxCell id="ZmpdYYW-7Tk491ilo6hp-319" value="S_ID&lt;br&gt;(FK)" style="ellipse;whiteSpace=wrap;html=1;align=center;" vertex="1" parent="1">
          <mxGeometry x="340" y="1990" width="45" height="40" as="geometry" />
        </mxCell>
        <mxCell id="ZmpdYYW-7Tk491ilo6hp-320" value="L_ID&lt;br&gt;(FK)" style="ellipse;whiteSpace=wrap;html=1;align=center;" vertex="1" parent="1">
          <mxGeometry x="387.5" y="1990" width="45" height="40" as="geometry" />
        </mxCell>
        <mxCell id="ZmpdYYW-7Tk491ilo6hp-321" value="R_ID&lt;br&gt;(PK)" style="ellipse;whiteSpace=wrap;html=1;align=center;fontStyle=4" vertex="1" parent="1">
          <mxGeometry x="290" y="1990" width="45" height="40" as="geometry" />
        </mxCell>
        <mxCell id="ZmpdYYW-7Tk491ilo6hp-322" value="R_Date" style="ellipse;whiteSpace=wrap;html=1;align=center;" vertex="1" parent="1">
          <mxGeometry x="437.5" y="1990" width="45" height="40" as="geometry" />
        </mxCell>
        <mxCell id="ZmpdYYW-7Tk491ilo6hp-323" value="N:M관계에서는 관계형 테이블을 만드는 것을 기본으로 한다" style="text;html=1;align=center;verticalAlign=middle;resizable=0;points=[];autosize=1;strokeColor=none;fillColor=none;" vertex="1" parent="1">
          <mxGeometry x="192.5" y="1840" width="340" height="30" as="geometry" />
        </mxCell>
        <mxCell id="ZmpdYYW-7Tk491ilo6hp-350" value="" style="edgeStyle=orthogonalEdgeStyle;rounded=0;orthogonalLoop=1;jettySize=auto;html=1;startArrow=ERone;startFill=0;endArrow=ERmany;endFill=0;" edge="1" parent="1" source="ZmpdYYW-7Tk491ilo6hp-324" target="ZmpdYYW-7Tk491ilo6hp-337">
          <mxGeometry relative="1" as="geometry" />
        </mxCell>
        <mxCell id="ZmpdYYW-7Tk491ilo6hp-324" value="강의" style="shape=table;startSize=30;container=1;collapsible=1;childLayout=tableLayout;fixedRows=1;rowLines=0;fontStyle=1;align=center;resizeLast=1;html=1;" vertex="1" parent="1">
          <mxGeometry x="25" y="2105" width="180" height="180" as="geometry" />
        </mxCell>
        <mxCell id="ZmpdYYW-7Tk491ilo6hp-325" value="" style="shape=tableRow;horizontal=0;startSize=0;swimlaneHead=0;swimlaneBody=0;fillColor=none;collapsible=0;dropTarget=0;points=[[0,0.5],[1,0.5]];portConstraint=eastwest;top=0;left=0;right=0;bottom=1;" vertex="1" parent="ZmpdYYW-7Tk491ilo6hp-324">
          <mxGeometry y="30" width="180" height="30" as="geometry" />
        </mxCell>
        <mxCell id="ZmpdYYW-7Tk491ilo6hp-326" value="PK" style="shape=partialRectangle;connectable=0;fillColor=none;top=0;left=0;bottom=0;right=0;fontStyle=1;overflow=hidden;whiteSpace=wrap;html=1;" vertex="1" parent="ZmpdYYW-7Tk491ilo6hp-325">
          <mxGeometry width="30" height="30" as="geometry">
            <mxRectangle width="30" height="30" as="alternateBounds" />
          </mxGeometry>
        </mxCell>
        <mxCell id="ZmpdYYW-7Tk491ilo6hp-327" value="L_ID" style="shape=partialRectangle;connectable=0;fillColor=none;top=0;left=0;bottom=0;right=0;align=left;spacingLeft=6;fontStyle=5;overflow=hidden;whiteSpace=wrap;html=1;" vertex="1" parent="ZmpdYYW-7Tk491ilo6hp-325">
          <mxGeometry x="30" width="150" height="30" as="geometry">
            <mxRectangle width="150" height="30" as="alternateBounds" />
          </mxGeometry>
        </mxCell>
        <mxCell id="ZmpdYYW-7Tk491ilo6hp-328" value="" style="shape=tableRow;horizontal=0;startSize=0;swimlaneHead=0;swimlaneBody=0;fillColor=none;collapsible=0;dropTarget=0;points=[[0,0.5],[1,0.5]];portConstraint=eastwest;top=0;left=0;right=0;bottom=0;" vertex="1" parent="ZmpdYYW-7Tk491ilo6hp-324">
          <mxGeometry y="60" width="180" height="30" as="geometry" />
        </mxCell>
        <mxCell id="ZmpdYYW-7Tk491ilo6hp-329" value="" style="shape=partialRectangle;connectable=0;fillColor=none;top=0;left=0;bottom=0;right=0;editable=1;overflow=hidden;whiteSpace=wrap;html=1;" vertex="1" parent="ZmpdYYW-7Tk491ilo6hp-328">
          <mxGeometry width="30" height="30" as="geometry">
            <mxRectangle width="30" height="30" as="alternateBounds" />
          </mxGeometry>
        </mxCell>
        <mxCell id="ZmpdYYW-7Tk491ilo6hp-330" value="강의명" style="shape=partialRectangle;connectable=0;fillColor=none;top=0;left=0;bottom=0;right=0;align=left;spacingLeft=6;overflow=hidden;whiteSpace=wrap;html=1;" vertex="1" parent="ZmpdYYW-7Tk491ilo6hp-328">
          <mxGeometry x="30" width="150" height="30" as="geometry">
            <mxRectangle width="150" height="30" as="alternateBounds" />
          </mxGeometry>
        </mxCell>
        <mxCell id="ZmpdYYW-7Tk491ilo6hp-331" value="" style="shape=tableRow;horizontal=0;startSize=0;swimlaneHead=0;swimlaneBody=0;fillColor=none;collapsible=0;dropTarget=0;points=[[0,0.5],[1,0.5]];portConstraint=eastwest;top=0;left=0;right=0;bottom=0;" vertex="1" parent="ZmpdYYW-7Tk491ilo6hp-324">
          <mxGeometry y="90" width="180" height="30" as="geometry" />
        </mxCell>
        <mxCell id="ZmpdYYW-7Tk491ilo6hp-332" value="" style="shape=partialRectangle;connectable=0;fillColor=none;top=0;left=0;bottom=0;right=0;editable=1;overflow=hidden;whiteSpace=wrap;html=1;" vertex="1" parent="ZmpdYYW-7Tk491ilo6hp-331">
          <mxGeometry width="30" height="30" as="geometry">
            <mxRectangle width="30" height="30" as="alternateBounds" />
          </mxGeometry>
        </mxCell>
        <mxCell id="ZmpdYYW-7Tk491ilo6hp-333" value="강의장명" style="shape=partialRectangle;connectable=0;fillColor=none;top=0;left=0;bottom=0;right=0;align=left;spacingLeft=6;overflow=hidden;whiteSpace=wrap;html=1;" vertex="1" parent="ZmpdYYW-7Tk491ilo6hp-331">
          <mxGeometry x="30" width="150" height="30" as="geometry">
            <mxRectangle width="150" height="30" as="alternateBounds" />
          </mxGeometry>
        </mxCell>
        <mxCell id="ZmpdYYW-7Tk491ilo6hp-334" value="" style="shape=tableRow;horizontal=0;startSize=0;swimlaneHead=0;swimlaneBody=0;fillColor=none;collapsible=0;dropTarget=0;points=[[0,0.5],[1,0.5]];portConstraint=eastwest;top=0;left=0;right=0;bottom=0;" vertex="1" parent="ZmpdYYW-7Tk491ilo6hp-324">
          <mxGeometry y="120" width="180" height="30" as="geometry" />
        </mxCell>
        <mxCell id="ZmpdYYW-7Tk491ilo6hp-335" value="" style="shape=partialRectangle;connectable=0;fillColor=none;top=0;left=0;bottom=0;right=0;editable=1;overflow=hidden;whiteSpace=wrap;html=1;" vertex="1" parent="ZmpdYYW-7Tk491ilo6hp-334">
          <mxGeometry width="30" height="30" as="geometry">
            <mxRectangle width="30" height="30" as="alternateBounds" />
          </mxGeometry>
        </mxCell>
        <mxCell id="ZmpdYYW-7Tk491ilo6hp-336" value="강사명" style="shape=partialRectangle;connectable=0;fillColor=none;top=0;left=0;bottom=0;right=0;align=left;spacingLeft=6;overflow=hidden;whiteSpace=wrap;html=1;" vertex="1" parent="ZmpdYYW-7Tk491ilo6hp-334">
          <mxGeometry x="30" width="150" height="30" as="geometry">
            <mxRectangle width="150" height="30" as="alternateBounds" />
          </mxGeometry>
        </mxCell>
        <mxCell id="ZmpdYYW-7Tk491ilo6hp-365" value="" style="shape=tableRow;horizontal=0;startSize=0;swimlaneHead=0;swimlaneBody=0;fillColor=none;collapsible=0;dropTarget=0;points=[[0,0.5],[1,0.5]];portConstraint=eastwest;top=0;left=0;right=0;bottom=0;" vertex="1" parent="ZmpdYYW-7Tk491ilo6hp-324">
          <mxGeometry y="150" width="180" height="30" as="geometry" />
        </mxCell>
        <mxCell id="ZmpdYYW-7Tk491ilo6hp-366" value="" style="shape=partialRectangle;connectable=0;fillColor=none;top=0;left=0;bottom=0;right=0;editable=1;overflow=hidden;whiteSpace=wrap;html=1;" vertex="1" parent="ZmpdYYW-7Tk491ilo6hp-365">
          <mxGeometry width="30" height="30" as="geometry">
            <mxRectangle width="30" height="30" as="alternateBounds" />
          </mxGeometry>
        </mxCell>
        <mxCell id="ZmpdYYW-7Tk491ilo6hp-367" value="강의시간" style="shape=partialRectangle;connectable=0;fillColor=none;top=0;left=0;bottom=0;right=0;align=left;spacingLeft=6;overflow=hidden;whiteSpace=wrap;html=1;" vertex="1" parent="ZmpdYYW-7Tk491ilo6hp-365">
          <mxGeometry x="30" width="150" height="30" as="geometry">
            <mxRectangle width="150" height="30" as="alternateBounds" />
          </mxGeometry>
        </mxCell>
        <mxCell id="ZmpdYYW-7Tk491ilo6hp-364" value="" style="edgeStyle=orthogonalEdgeStyle;rounded=0;orthogonalLoop=1;jettySize=auto;html=1;endArrow=ERone;endFill=0;startArrow=ERoneToMany;startFill=0;" edge="1" parent="1" source="ZmpdYYW-7Tk491ilo6hp-337" target="ZmpdYYW-7Tk491ilo6hp-351">
          <mxGeometry relative="1" as="geometry" />
        </mxCell>
        <mxCell id="ZmpdYYW-7Tk491ilo6hp-337" value="수강신청" style="shape=table;startSize=30;container=1;collapsible=1;childLayout=tableLayout;fixedRows=1;rowLines=0;fontStyle=1;align=center;resizeLast=1;html=1;" vertex="1" parent="1">
          <mxGeometry x="275" y="2120" width="180" height="150" as="geometry" />
        </mxCell>
        <mxCell id="ZmpdYYW-7Tk491ilo6hp-338" value="" style="shape=tableRow;horizontal=0;startSize=0;swimlaneHead=0;swimlaneBody=0;fillColor=none;collapsible=0;dropTarget=0;points=[[0,0.5],[1,0.5]];portConstraint=eastwest;top=0;left=0;right=0;bottom=1;" vertex="1" parent="ZmpdYYW-7Tk491ilo6hp-337">
          <mxGeometry y="30" width="180" height="30" as="geometry" />
        </mxCell>
        <mxCell id="ZmpdYYW-7Tk491ilo6hp-339" value="PK" style="shape=partialRectangle;connectable=0;fillColor=none;top=0;left=0;bottom=0;right=0;fontStyle=1;overflow=hidden;whiteSpace=wrap;html=1;" vertex="1" parent="ZmpdYYW-7Tk491ilo6hp-338">
          <mxGeometry width="30" height="30" as="geometry">
            <mxRectangle width="30" height="30" as="alternateBounds" />
          </mxGeometry>
        </mxCell>
        <mxCell id="ZmpdYYW-7Tk491ilo6hp-340" value="R_ID" style="shape=partialRectangle;connectable=0;fillColor=none;top=0;left=0;bottom=0;right=0;align=left;spacingLeft=6;fontStyle=5;overflow=hidden;whiteSpace=wrap;html=1;" vertex="1" parent="ZmpdYYW-7Tk491ilo6hp-338">
          <mxGeometry x="30" width="150" height="30" as="geometry">
            <mxRectangle width="150" height="30" as="alternateBounds" />
          </mxGeometry>
        </mxCell>
        <mxCell id="ZmpdYYW-7Tk491ilo6hp-368" value="" style="shape=tableRow;horizontal=0;startSize=0;swimlaneHead=0;swimlaneBody=0;fillColor=none;collapsible=0;dropTarget=0;points=[[0,0.5],[1,0.5]];portConstraint=eastwest;top=0;left=0;right=0;bottom=1;" vertex="1" parent="ZmpdYYW-7Tk491ilo6hp-337">
          <mxGeometry y="60" width="180" height="30" as="geometry" />
        </mxCell>
        <mxCell id="ZmpdYYW-7Tk491ilo6hp-369" value="FK" style="shape=partialRectangle;connectable=0;fillColor=none;top=0;left=0;bottom=0;right=0;fontStyle=1;overflow=hidden;whiteSpace=wrap;html=1;" vertex="1" parent="ZmpdYYW-7Tk491ilo6hp-368">
          <mxGeometry width="30" height="30" as="geometry">
            <mxRectangle width="30" height="30" as="alternateBounds" />
          </mxGeometry>
        </mxCell>
        <mxCell id="ZmpdYYW-7Tk491ilo6hp-370" value="S_ID" style="shape=partialRectangle;connectable=0;fillColor=none;top=0;left=0;bottom=0;right=0;align=left;spacingLeft=6;fontStyle=1;overflow=hidden;whiteSpace=wrap;html=1;" vertex="1" parent="ZmpdYYW-7Tk491ilo6hp-368">
          <mxGeometry x="30" width="150" height="30" as="geometry">
            <mxRectangle width="150" height="30" as="alternateBounds" />
          </mxGeometry>
        </mxCell>
        <mxCell id="ZmpdYYW-7Tk491ilo6hp-371" value="" style="shape=tableRow;horizontal=0;startSize=0;swimlaneHead=0;swimlaneBody=0;fillColor=none;collapsible=0;dropTarget=0;points=[[0,0.5],[1,0.5]];portConstraint=eastwest;top=0;left=0;right=0;bottom=1;" vertex="1" parent="ZmpdYYW-7Tk491ilo6hp-337">
          <mxGeometry y="90" width="180" height="30" as="geometry" />
        </mxCell>
        <mxCell id="ZmpdYYW-7Tk491ilo6hp-372" value="FK" style="shape=partialRectangle;connectable=0;fillColor=none;top=0;left=0;bottom=0;right=0;fontStyle=1;overflow=hidden;whiteSpace=wrap;html=1;" vertex="1" parent="ZmpdYYW-7Tk491ilo6hp-371">
          <mxGeometry width="30" height="30" as="geometry">
            <mxRectangle width="30" height="30" as="alternateBounds" />
          </mxGeometry>
        </mxCell>
        <mxCell id="ZmpdYYW-7Tk491ilo6hp-373" value="L_ID" style="shape=partialRectangle;connectable=0;fillColor=none;top=0;left=0;bottom=0;right=0;align=left;spacingLeft=6;fontStyle=1;overflow=hidden;whiteSpace=wrap;html=1;" vertex="1" parent="ZmpdYYW-7Tk491ilo6hp-371">
          <mxGeometry x="30" width="150" height="30" as="geometry">
            <mxRectangle width="150" height="30" as="alternateBounds" />
          </mxGeometry>
        </mxCell>
        <mxCell id="ZmpdYYW-7Tk491ilo6hp-341" value="" style="shape=tableRow;horizontal=0;startSize=0;swimlaneHead=0;swimlaneBody=0;fillColor=none;collapsible=0;dropTarget=0;points=[[0,0.5],[1,0.5]];portConstraint=eastwest;top=0;left=0;right=0;bottom=0;" vertex="1" parent="ZmpdYYW-7Tk491ilo6hp-337">
          <mxGeometry y="120" width="180" height="30" as="geometry" />
        </mxCell>
        <mxCell id="ZmpdYYW-7Tk491ilo6hp-342" value="" style="shape=partialRectangle;connectable=0;fillColor=none;top=0;left=0;bottom=0;right=0;editable=1;overflow=hidden;whiteSpace=wrap;html=1;" vertex="1" parent="ZmpdYYW-7Tk491ilo6hp-341">
          <mxGeometry width="30" height="30" as="geometry">
            <mxRectangle width="30" height="30" as="alternateBounds" />
          </mxGeometry>
        </mxCell>
        <mxCell id="ZmpdYYW-7Tk491ilo6hp-343" value="R_date" style="shape=partialRectangle;connectable=0;fillColor=none;top=0;left=0;bottom=0;right=0;align=left;spacingLeft=6;overflow=hidden;whiteSpace=wrap;html=1;" vertex="1" parent="ZmpdYYW-7Tk491ilo6hp-341">
          <mxGeometry x="30" width="150" height="30" as="geometry">
            <mxRectangle width="150" height="30" as="alternateBounds" />
          </mxGeometry>
        </mxCell>
        <mxCell id="ZmpdYYW-7Tk491ilo6hp-351" value="학생" style="shape=table;startSize=30;container=1;collapsible=1;childLayout=tableLayout;fixedRows=1;rowLines=0;fontStyle=1;align=center;resizeLast=1;html=1;" vertex="1" parent="1">
          <mxGeometry x="545" y="2120" width="180" height="150" as="geometry" />
        </mxCell>
        <mxCell id="ZmpdYYW-7Tk491ilo6hp-352" value="" style="shape=tableRow;horizontal=0;startSize=0;swimlaneHead=0;swimlaneBody=0;fillColor=none;collapsible=0;dropTarget=0;points=[[0,0.5],[1,0.5]];portConstraint=eastwest;top=0;left=0;right=0;bottom=1;" vertex="1" parent="ZmpdYYW-7Tk491ilo6hp-351">
          <mxGeometry y="30" width="180" height="30" as="geometry" />
        </mxCell>
        <mxCell id="ZmpdYYW-7Tk491ilo6hp-353" value="PK" style="shape=partialRectangle;connectable=0;fillColor=none;top=0;left=0;bottom=0;right=0;fontStyle=1;overflow=hidden;whiteSpace=wrap;html=1;" vertex="1" parent="ZmpdYYW-7Tk491ilo6hp-352">
          <mxGeometry width="30" height="30" as="geometry">
            <mxRectangle width="30" height="30" as="alternateBounds" />
          </mxGeometry>
        </mxCell>
        <mxCell id="ZmpdYYW-7Tk491ilo6hp-354" value="S_ID" style="shape=partialRectangle;connectable=0;fillColor=none;top=0;left=0;bottom=0;right=0;align=left;spacingLeft=6;fontStyle=5;overflow=hidden;whiteSpace=wrap;html=1;" vertex="1" parent="ZmpdYYW-7Tk491ilo6hp-352">
          <mxGeometry x="30" width="150" height="30" as="geometry">
            <mxRectangle width="150" height="30" as="alternateBounds" />
          </mxGeometry>
        </mxCell>
        <mxCell id="ZmpdYYW-7Tk491ilo6hp-355" value="" style="shape=tableRow;horizontal=0;startSize=0;swimlaneHead=0;swimlaneBody=0;fillColor=none;collapsible=0;dropTarget=0;points=[[0,0.5],[1,0.5]];portConstraint=eastwest;top=0;left=0;right=0;bottom=0;" vertex="1" parent="ZmpdYYW-7Tk491ilo6hp-351">
          <mxGeometry y="60" width="180" height="30" as="geometry" />
        </mxCell>
        <mxCell id="ZmpdYYW-7Tk491ilo6hp-356" value="" style="shape=partialRectangle;connectable=0;fillColor=none;top=0;left=0;bottom=0;right=0;editable=1;overflow=hidden;whiteSpace=wrap;html=1;" vertex="1" parent="ZmpdYYW-7Tk491ilo6hp-355">
          <mxGeometry width="30" height="30" as="geometry">
            <mxRectangle width="30" height="30" as="alternateBounds" />
          </mxGeometry>
        </mxCell>
        <mxCell id="ZmpdYYW-7Tk491ilo6hp-357" value="이름" style="shape=partialRectangle;connectable=0;fillColor=none;top=0;left=0;bottom=0;right=0;align=left;spacingLeft=6;overflow=hidden;whiteSpace=wrap;html=1;" vertex="1" parent="ZmpdYYW-7Tk491ilo6hp-355">
          <mxGeometry x="30" width="150" height="30" as="geometry">
            <mxRectangle width="150" height="30" as="alternateBounds" />
          </mxGeometry>
        </mxCell>
        <mxCell id="ZmpdYYW-7Tk491ilo6hp-358" value="" style="shape=tableRow;horizontal=0;startSize=0;swimlaneHead=0;swimlaneBody=0;fillColor=none;collapsible=0;dropTarget=0;points=[[0,0.5],[1,0.5]];portConstraint=eastwest;top=0;left=0;right=0;bottom=0;" vertex="1" parent="ZmpdYYW-7Tk491ilo6hp-351">
          <mxGeometry y="90" width="180" height="30" as="geometry" />
        </mxCell>
        <mxCell id="ZmpdYYW-7Tk491ilo6hp-359" value="" style="shape=partialRectangle;connectable=0;fillColor=none;top=0;left=0;bottom=0;right=0;editable=1;overflow=hidden;whiteSpace=wrap;html=1;" vertex="1" parent="ZmpdYYW-7Tk491ilo6hp-358">
          <mxGeometry width="30" height="30" as="geometry">
            <mxRectangle width="30" height="30" as="alternateBounds" />
          </mxGeometry>
        </mxCell>
        <mxCell id="ZmpdYYW-7Tk491ilo6hp-360" value="나이" style="shape=partialRectangle;connectable=0;fillColor=none;top=0;left=0;bottom=0;right=0;align=left;spacingLeft=6;overflow=hidden;whiteSpace=wrap;html=1;" vertex="1" parent="ZmpdYYW-7Tk491ilo6hp-358">
          <mxGeometry x="30" width="150" height="30" as="geometry">
            <mxRectangle width="150" height="30" as="alternateBounds" />
          </mxGeometry>
        </mxCell>
        <mxCell id="ZmpdYYW-7Tk491ilo6hp-361" value="" style="shape=tableRow;horizontal=0;startSize=0;swimlaneHead=0;swimlaneBody=0;fillColor=none;collapsible=0;dropTarget=0;points=[[0,0.5],[1,0.5]];portConstraint=eastwest;top=0;left=0;right=0;bottom=0;" vertex="1" parent="ZmpdYYW-7Tk491ilo6hp-351">
          <mxGeometry y="120" width="180" height="30" as="geometry" />
        </mxCell>
        <mxCell id="ZmpdYYW-7Tk491ilo6hp-362" value="" style="shape=partialRectangle;connectable=0;fillColor=none;top=0;left=0;bottom=0;right=0;editable=1;overflow=hidden;whiteSpace=wrap;html=1;" vertex="1" parent="ZmpdYYW-7Tk491ilo6hp-361">
          <mxGeometry width="30" height="30" as="geometry">
            <mxRectangle width="30" height="30" as="alternateBounds" />
          </mxGeometry>
        </mxCell>
        <mxCell id="ZmpdYYW-7Tk491ilo6hp-363" value="연락처" style="shape=partialRectangle;connectable=0;fillColor=none;top=0;left=0;bottom=0;right=0;align=left;spacingLeft=6;overflow=hidden;whiteSpace=wrap;html=1;" vertex="1" parent="ZmpdYYW-7Tk491ilo6hp-361">
          <mxGeometry x="30" width="150" height="30" as="geometry">
            <mxRectangle width="150" height="30" as="alternateBounds" />
          </mxGeometry>
        </mxCell>
      </root>
    </mxGraphModel>
  </diagram>
  <diagram id="uMaB6Uv6nmokrKJckF7k" name="페이지-2">
    <mxGraphModel dx="986" dy="1047" grid="1" gridSize="10" guides="1" tooltips="1" connect="1" arrows="1" fold="1" page="1" pageScale="1" pageWidth="827" pageHeight="1169" math="0" shadow="0">
      <root>
        <mxCell id="0" />
        <mxCell id="1" parent="0" />
        <mxCell id="opT3b-AHbTkimgu-eclv-1" value="테이블간 관계가 없는 경우" style="text;html=1;align=center;verticalAlign=middle;whiteSpace=wrap;rounded=0;fontSize=20;labelBackgroundColor=none;" parent="1" vertex="1">
          <mxGeometry x="30" y="30" width="260" height="30" as="geometry" />
        </mxCell>
        <mxCell id="opT3b-AHbTkimgu-eclv-2" value="과일" style="whiteSpace=wrap;html=1;align=center;labelBackgroundColor=none;" parent="1" vertex="1">
          <mxGeometry x="60" y="100" width="100" height="40" as="geometry" />
        </mxCell>
        <mxCell id="opT3b-AHbTkimgu-eclv-3" value="가전" style="whiteSpace=wrap;html=1;align=center;labelBackgroundColor=none;" parent="1" vertex="1">
          <mxGeometry x="260" y="100" width="100" height="40" as="geometry" />
        </mxCell>
        <mxCell id="opT3b-AHbTkimgu-eclv-4" value="과일명" style="ellipse;whiteSpace=wrap;html=1;align=center;" parent="1" vertex="1">
          <mxGeometry x="50" y="170" width="40" height="40" as="geometry" />
        </mxCell>
        <mxCell id="opT3b-AHbTkimgu-eclv-9" style="edgeStyle=orthogonalEdgeStyle;rounded=0;orthogonalLoop=1;jettySize=auto;html=1;exitX=0.5;exitY=0;exitDx=0;exitDy=0;strokeColor=none;endArrow=none;endFill=0;" parent="1" source="opT3b-AHbTkimgu-eclv-5" target="opT3b-AHbTkimgu-eclv-2" edge="1">
          <mxGeometry relative="1" as="geometry" />
        </mxCell>
        <mxCell id="opT3b-AHbTkimgu-eclv-5" value="입고&lt;div&gt;날짜&lt;/div&gt;" style="ellipse;whiteSpace=wrap;html=1;align=center;" parent="1" vertex="1">
          <mxGeometry x="100" y="170" width="40" height="40" as="geometry" />
        </mxCell>
        <mxCell id="opT3b-AHbTkimgu-eclv-8" value="가격" style="ellipse;whiteSpace=wrap;html=1;align=center;" parent="1" vertex="1">
          <mxGeometry x="146" y="170" width="40" height="40" as="geometry" />
        </mxCell>
        <mxCell id="opT3b-AHbTkimgu-eclv-12" value="&lt;u&gt;No&lt;/u&gt;&lt;div&gt;&lt;u&gt;(PK)&lt;/u&gt;&lt;/div&gt;" style="ellipse;whiteSpace=wrap;html=1;align=center;" parent="1" vertex="1">
          <mxGeometry x="5" y="170" width="40" height="40" as="geometry" />
        </mxCell>
        <mxCell id="opT3b-AHbTkimgu-eclv-13" value="" style="endArrow=none;html=1;rounded=0;exitX=1;exitY=0;exitDx=0;exitDy=0;" parent="1" source="opT3b-AHbTkimgu-eclv-12" edge="1">
          <mxGeometry width="50" height="50" relative="1" as="geometry">
            <mxPoint x="370" y="300" as="sourcePoint" />
            <mxPoint x="110" y="142" as="targetPoint" />
          </mxGeometry>
        </mxCell>
        <mxCell id="opT3b-AHbTkimgu-eclv-14" value="" style="endArrow=none;html=1;rounded=0;exitX=0.5;exitY=0;exitDx=0;exitDy=0;entryX=0.5;entryY=1;entryDx=0;entryDy=0;" parent="1" source="opT3b-AHbTkimgu-eclv-4" target="opT3b-AHbTkimgu-eclv-2" edge="1">
          <mxGeometry width="50" height="50" relative="1" as="geometry">
            <mxPoint x="370" y="300" as="sourcePoint" />
            <mxPoint x="420" y="250" as="targetPoint" />
          </mxGeometry>
        </mxCell>
        <mxCell id="opT3b-AHbTkimgu-eclv-15" value="" style="endArrow=none;html=1;rounded=0;exitX=0.5;exitY=0;exitDx=0;exitDy=0;entryX=0.5;entryY=1;entryDx=0;entryDy=0;" parent="1" source="opT3b-AHbTkimgu-eclv-5" target="opT3b-AHbTkimgu-eclv-2" edge="1">
          <mxGeometry width="50" height="50" relative="1" as="geometry">
            <mxPoint x="370" y="300" as="sourcePoint" />
            <mxPoint x="420" y="250" as="targetPoint" />
          </mxGeometry>
        </mxCell>
        <mxCell id="opT3b-AHbTkimgu-eclv-16" value="" style="endArrow=none;html=1;rounded=0;entryX=0.5;entryY=1;entryDx=0;entryDy=0;exitX=0.5;exitY=0;exitDx=0;exitDy=0;" parent="1" source="opT3b-AHbTkimgu-eclv-8" target="opT3b-AHbTkimgu-eclv-2" edge="1">
          <mxGeometry width="50" height="50" relative="1" as="geometry">
            <mxPoint x="370" y="300" as="sourcePoint" />
            <mxPoint x="420" y="250" as="targetPoint" />
          </mxGeometry>
        </mxCell>
        <mxCell id="opT3b-AHbTkimgu-eclv-17" value="관계 x" style="text;html=1;align=center;verticalAlign=middle;whiteSpace=wrap;rounded=0;" parent="1" vertex="1">
          <mxGeometry x="180" y="110" width="60" height="30" as="geometry" />
        </mxCell>
        <mxCell id="opT3b-AHbTkimgu-eclv-18" value="고객" style="whiteSpace=wrap;html=1;align=center;" parent="1" vertex="1">
          <mxGeometry x="60" y="300" width="100" height="40" as="geometry" />
        </mxCell>
        <mxCell id="opT3b-AHbTkimgu-eclv-19" value="FAQ" style="whiteSpace=wrap;html=1;align=center;" parent="1" vertex="1">
          <mxGeometry x="250" y="300" width="100" height="40" as="geometry" />
        </mxCell>
        <mxCell id="opT3b-AHbTkimgu-eclv-20" value="관계 x" style="text;html=1;align=center;verticalAlign=middle;whiteSpace=wrap;rounded=0;" parent="1" vertex="1">
          <mxGeometry x="170" y="370" width="60" height="30" as="geometry" />
        </mxCell>
        <mxCell id="opT3b-AHbTkimgu-eclv-21" value="공지사항" style="whiteSpace=wrap;html=1;align=center;" parent="1" vertex="1">
          <mxGeometry x="240" y="420" width="100" height="40" as="geometry" />
        </mxCell>
        <mxCell id="opT3b-AHbTkimgu-eclv-22" value="테이블간 관계가 있는 경우" style="text;html=1;align=center;verticalAlign=middle;whiteSpace=wrap;rounded=0;fontSize=20;labelBackgroundColor=none;" parent="1" vertex="1">
          <mxGeometry x="460" y="30" width="260" height="30" as="geometry" />
        </mxCell>
        <mxCell id="opT3b-AHbTkimgu-eclv-23" value="남자" style="whiteSpace=wrap;html=1;align=center;labelBackgroundColor=none;" parent="1" vertex="1">
          <mxGeometry x="440" y="105" width="100" height="40" as="geometry" />
        </mxCell>
        <mxCell id="opT3b-AHbTkimgu-eclv-24" value="여자" style="whiteSpace=wrap;html=1;align=center;labelBackgroundColor=none;" parent="1" vertex="1">
          <mxGeometry x="950" y="114" width="100" height="40" as="geometry" />
        </mxCell>
        <mxCell id="opT3b-AHbTkimgu-eclv-25" value="결혼" style="rhombus;whiteSpace=wrap;html=1;" parent="1" vertex="1">
          <mxGeometry x="730" y="105" width="50" height="50" as="geometry" />
        </mxCell>
        <mxCell id="opT3b-AHbTkimgu-eclv-26" value="" style="endArrow=none;html=1;rounded=0;exitX=1;exitY=0.5;exitDx=0;exitDy=0;entryX=0;entryY=0.5;entryDx=0;entryDy=0;" parent="1" source="opT3b-AHbTkimgu-eclv-23" target="opT3b-AHbTkimgu-eclv-25" edge="1">
          <mxGeometry width="50" height="50" relative="1" as="geometry">
            <mxPoint x="370" y="300" as="sourcePoint" />
            <mxPoint x="420" y="250" as="targetPoint" />
          </mxGeometry>
        </mxCell>
        <mxCell id="opT3b-AHbTkimgu-eclv-27" value="" style="endArrow=none;html=1;rounded=0;exitX=1;exitY=0.5;exitDx=0;exitDy=0;entryX=0;entryY=0.5;entryDx=0;entryDy=0;" parent="1" source="opT3b-AHbTkimgu-eclv-25" target="opT3b-AHbTkimgu-eclv-24" edge="1">
          <mxGeometry width="50" height="50" relative="1" as="geometry">
            <mxPoint x="370" y="300" as="sourcePoint" />
            <mxPoint x="420" y="250" as="targetPoint" />
          </mxGeometry>
        </mxCell>
        <mxCell id="opT3b-AHbTkimgu-eclv-28" value="1" style="text;html=1;align=center;verticalAlign=middle;whiteSpace=wrap;rounded=0;" parent="1" vertex="1">
          <mxGeometry x="520" y="75" width="20" height="30" as="geometry" />
        </mxCell>
        <mxCell id="opT3b-AHbTkimgu-eclv-29" value="1" style="text;html=1;align=center;verticalAlign=middle;whiteSpace=wrap;rounded=0;" parent="1" vertex="1">
          <mxGeometry x="560" y="100" width="20" height="30" as="geometry" />
        </mxCell>
        <mxCell id="opT3b-AHbTkimgu-eclv-30" value="1" style="text;html=1;align=center;verticalAlign=middle;whiteSpace=wrap;rounded=0;" parent="1" vertex="1">
          <mxGeometry x="800" y="100" width="20" height="30" as="geometry" />
        </mxCell>
        <mxCell id="opT3b-AHbTkimgu-eclv-31" value="1" style="text;html=1;align=center;verticalAlign=middle;whiteSpace=wrap;rounded=0;" parent="1" vertex="1">
          <mxGeometry x="960" y="80" width="20" height="30" as="geometry" />
        </mxCell>
        <mxCell id="opT3b-AHbTkimgu-eclv-39" value="남성&lt;div&gt;ID&lt;/div&gt;" style="ellipse;whiteSpace=wrap;html=1;align=center;" parent="1" vertex="1">
          <mxGeometry x="420" y="160" width="40" height="40" as="geometry" />
        </mxCell>
        <mxCell id="opT3b-AHbTkimgu-eclv-40" value="남성&lt;div&gt;이름&lt;/div&gt;" style="ellipse;whiteSpace=wrap;html=1;align=center;" parent="1" vertex="1">
          <mxGeometry x="470" y="160" width="40" height="40" as="geometry" />
        </mxCell>
        <mxCell id="opT3b-AHbTkimgu-eclv-41" value="주소" style="ellipse;whiteSpace=wrap;html=1;align=center;" parent="1" vertex="1">
          <mxGeometry x="520" y="160" width="40" height="40" as="geometry" />
        </mxCell>
        <mxCell id="opT3b-AHbTkimgu-eclv-42" value="&lt;div&gt;여성&lt;/div&gt;ID" style="ellipse;whiteSpace=wrap;html=1;align=center;" parent="1" vertex="1">
          <mxGeometry x="930" y="170" width="40" height="40" as="geometry" />
        </mxCell>
        <mxCell id="opT3b-AHbTkimgu-eclv-43" value="&lt;div&gt;여성&lt;/div&gt;이름" style="ellipse;whiteSpace=wrap;html=1;align=center;" parent="1" vertex="1">
          <mxGeometry x="980" y="170" width="40" height="40" as="geometry" />
        </mxCell>
        <mxCell id="opT3b-AHbTkimgu-eclv-44" value="주소" style="ellipse;whiteSpace=wrap;html=1;align=center;" parent="1" vertex="1">
          <mxGeometry x="1030" y="170" width="40" height="40" as="geometry" />
        </mxCell>
        <mxCell id="opT3b-AHbTkimgu-eclv-46" value="날찌" style="ellipse;whiteSpace=wrap;html=1;align=center;" parent="1" vertex="1">
          <mxGeometry x="670" y="155" width="40" height="40" as="geometry" />
        </mxCell>
        <mxCell id="opT3b-AHbTkimgu-eclv-49" value="&lt;div&gt;여성&lt;/div&gt;이름" style="ellipse;whiteSpace=wrap;html=1;align=center;" parent="1" vertex="1">
          <mxGeometry x="810" y="154" width="40" height="40" as="geometry" />
        </mxCell>
        <mxCell id="opT3b-AHbTkimgu-eclv-51" value="남성&lt;div&gt;이름&lt;/div&gt;" style="ellipse;whiteSpace=wrap;html=1;align=center;" parent="1" vertex="1">
          <mxGeometry x="760" y="154" width="40" height="40" as="geometry" />
        </mxCell>
        <mxCell id="opT3b-AHbTkimgu-eclv-52" value="고객" style="whiteSpace=wrap;html=1;align=center;labelBackgroundColor=none;" parent="1" vertex="1">
          <mxGeometry x="440" y="260" width="100" height="40" as="geometry" />
        </mxCell>
        <mxCell id="opT3b-AHbTkimgu-eclv-53" value="차얄정보" style="whiteSpace=wrap;html=1;align=center;labelBackgroundColor=none;" parent="1" vertex="1">
          <mxGeometry x="940" y="250" width="100" height="50" as="geometry" />
        </mxCell>
        <mxCell id="opT3b-AHbTkimgu-eclv-54" value="구매-" style="rhombus;whiteSpace=wrap;html=1;" parent="1" vertex="1">
          <mxGeometry x="720" y="250" width="50" height="50" as="geometry" />
        </mxCell>
        <mxCell id="opT3b-AHbTkimgu-eclv-55" value="" style="endArrow=none;html=1;rounded=0;exitX=1;exitY=0.75;exitDx=0;exitDy=0;entryX=0;entryY=0.5;entryDx=0;entryDy=0;" parent="1" source="opT3b-AHbTkimgu-eclv-52" target="opT3b-AHbTkimgu-eclv-54" edge="1">
          <mxGeometry width="50" height="50" relative="1" as="geometry">
            <mxPoint x="670" y="220" as="sourcePoint" />
            <mxPoint x="720" y="170" as="targetPoint" />
          </mxGeometry>
        </mxCell>
        <mxCell id="opT3b-AHbTkimgu-eclv-56" value="1" style="text;html=1;align=center;verticalAlign=middle;whiteSpace=wrap;rounded=0;" parent="1" vertex="1">
          <mxGeometry x="540" y="250" width="20" height="30" as="geometry" />
        </mxCell>
        <mxCell id="opT3b-AHbTkimgu-eclv-57" value="1" style="text;html=1;align=center;verticalAlign=middle;whiteSpace=wrap;rounded=0;" parent="1" vertex="1">
          <mxGeometry x="700" y="240" width="20" height="30" as="geometry" />
        </mxCell>
        <mxCell id="opT3b-AHbTkimgu-eclv-58" value="" style="endArrow=none;html=1;rounded=0;exitX=1;exitY=0.5;exitDx=0;exitDy=0;entryX=0;entryY=0.5;entryDx=0;entryDy=0;" parent="1" edge="1">
          <mxGeometry width="50" height="50" relative="1" as="geometry">
            <mxPoint x="770" y="273" as="sourcePoint" />
            <mxPoint x="940" y="277" as="targetPoint" />
          </mxGeometry>
        </mxCell>
        <mxCell id="opT3b-AHbTkimgu-eclv-59" value="1" style="text;html=1;align=center;verticalAlign=middle;whiteSpace=wrap;rounded=0;" parent="1" vertex="1">
          <mxGeometry x="920" y="250" width="20" height="30" as="geometry" />
        </mxCell>
        <mxCell id="opT3b-AHbTkimgu-eclv-60" value="N" style="text;html=1;align=center;verticalAlign=middle;whiteSpace=wrap;rounded=0;" parent="1" vertex="1">
          <mxGeometry x="760" y="240" width="20" height="30" as="geometry" />
        </mxCell>
        <mxCell id="opT3b-AHbTkimgu-eclv-61" value="사람" style="whiteSpace=wrap;html=1;align=center;labelBackgroundColor=none;" parent="1" vertex="1">
          <mxGeometry x="440" y="340" width="100" height="40" as="geometry" />
        </mxCell>
        <mxCell id="opT3b-AHbTkimgu-eclv-62" value="지문" style="whiteSpace=wrap;html=1;align=center;labelBackgroundColor=none;" parent="1" vertex="1">
          <mxGeometry x="930" y="330" width="100" height="40" as="geometry" />
        </mxCell>
        <mxCell id="opT3b-AHbTkimgu-eclv-63" value="주민&lt;div&gt;번호&lt;/div&gt;&lt;div&gt;pk&lt;/div&gt;" style="ellipse;whiteSpace=wrap;html=1;align=center;" parent="1" vertex="1">
          <mxGeometry x="445" y="390" width="40" height="40" as="geometry" />
        </mxCell>
        <mxCell id="opT3b-AHbTkimgu-eclv-64" value="이름" style="ellipse;whiteSpace=wrap;html=1;align=center;" parent="1" vertex="1">
          <mxGeometry x="495" y="390" width="40" height="40" as="geometry" />
        </mxCell>
        <mxCell id="opT3b-AHbTkimgu-eclv-65" value="지문 ID(pk)" style="ellipse;whiteSpace=wrap;html=1;align=center;" parent="1" vertex="1">
          <mxGeometry x="930" y="390" width="40" height="40" as="geometry" />
        </mxCell>
        <mxCell id="opT3b-AHbTkimgu-eclv-66" value="엄지&lt;div&gt;지문&lt;/div&gt;" style="ellipse;whiteSpace=wrap;html=1;align=center;" parent="1" vertex="1">
          <mxGeometry x="980" y="390" width="40" height="40" as="geometry" />
        </mxCell>
        <mxCell id="opT3b-AHbTkimgu-eclv-67" value="검지&lt;div&gt;지문&lt;/div&gt;" style="ellipse;whiteSpace=wrap;html=1;align=center;" parent="1" vertex="1">
          <mxGeometry x="1030" y="390" width="40" height="40" as="geometry" />
        </mxCell>
        <mxCell id="opT3b-AHbTkimgu-eclv-69" value="" style="endArrow=none;html=1;rounded=0;exitX=1;exitY=0.5;exitDx=0;exitDy=0;" parent="1" source="opT3b-AHbTkimgu-eclv-61" target="opT3b-AHbTkimgu-eclv-62" edge="1">
          <mxGeometry width="50" height="50" relative="1" as="geometry">
            <mxPoint x="620" y="295" as="sourcePoint" />
            <mxPoint x="800" y="280" as="targetPoint" />
          </mxGeometry>
        </mxCell>
        <mxCell id="opT3b-AHbTkimgu-eclv-70" value="1" style="text;html=1;align=center;verticalAlign=middle;whiteSpace=wrap;rounded=0;" parent="1" vertex="1">
          <mxGeometry x="540" y="320" width="20" height="30" as="geometry" />
        </mxCell>
        <mxCell id="opT3b-AHbTkimgu-eclv-71" value="1" style="text;html=1;align=center;verticalAlign=middle;whiteSpace=wrap;rounded=0;" parent="1" vertex="1">
          <mxGeometry x="900" y="320" width="20" height="30" as="geometry" />
        </mxCell>
        <mxCell id="opT3b-AHbTkimgu-eclv-73" value="주민&lt;div&gt;번호&amp;nbsp;&lt;div&gt;ID&lt;/div&gt;&lt;/div&gt;&lt;div&gt;pj&lt;/div&gt;" style="ellipse;whiteSpace=wrap;html=1;align=center;" parent="1" vertex="1">
          <mxGeometry x="930" y="450" width="40" height="40" as="geometry" />
        </mxCell>
        <mxCell id="opT3b-AHbTkimgu-eclv-74" value="고객" style="whiteSpace=wrap;html=1;align=center;labelBackgroundColor=none;" parent="1" vertex="1">
          <mxGeometry x="440" y="520" width="100" height="40" as="geometry" />
        </mxCell>
        <mxCell id="opT3b-AHbTkimgu-eclv-75" value="장바구니" style="whiteSpace=wrap;html=1;align=center;labelBackgroundColor=none;" parent="1" vertex="1">
          <mxGeometry x="920" y="520" width="100" height="40" as="geometry" />
        </mxCell>
        <mxCell id="opT3b-AHbTkimgu-eclv-76" value="고객" style="whiteSpace=wrap;html=1;align=center;labelBackgroundColor=none;" parent="1" vertex="1">
          <mxGeometry x="440" y="670" width="100" height="40" as="geometry" />
        </mxCell>
        <mxCell id="opT3b-AHbTkimgu-eclv-77" value="제품" style="whiteSpace=wrap;html=1;align=center;labelBackgroundColor=none;" parent="1" vertex="1">
          <mxGeometry x="920" y="670" width="100" height="40" as="geometry" />
        </mxCell>
        <mxCell id="opT3b-AHbTkimgu-eclv-78" value="" style="endArrow=none;html=1;rounded=0;" parent="1" target="opT3b-AHbTkimgu-eclv-83" edge="1">
          <mxGeometry width="50" height="50" relative="1" as="geometry">
            <mxPoint x="540" y="538.82" as="sourcePoint" />
            <mxPoint x="710" y="530" as="targetPoint" />
          </mxGeometry>
        </mxCell>
        <mxCell id="opT3b-AHbTkimgu-eclv-79" value="ID&lt;br&gt;&lt;div&gt;pk&lt;/div&gt;" style="ellipse;whiteSpace=wrap;html=1;align=center;" parent="1" vertex="1">
          <mxGeometry x="440" y="570" width="40" height="40" as="geometry" />
        </mxCell>
        <mxCell id="opT3b-AHbTkimgu-eclv-80" value="고객 주소" style="ellipse;whiteSpace=wrap;html=1;align=center;" parent="1" vertex="1">
          <mxGeometry x="520" y="570" width="40" height="40" as="geometry" />
        </mxCell>
        <mxCell id="opT3b-AHbTkimgu-eclv-81" value="&lt;div&gt;직원 이름&lt;/div&gt;" style="ellipse;whiteSpace=wrap;html=1;align=center;" parent="1" vertex="1">
          <mxGeometry x="470" y="830" width="40" height="40" as="geometry" />
        </mxCell>
        <mxCell id="opT3b-AHbTkimgu-eclv-83" value="사용" style="rhombus;whiteSpace=wrap;html=1;" parent="1" vertex="1">
          <mxGeometry x="670" y="500" width="80" height="80" as="geometry" />
        </mxCell>
        <mxCell id="opT3b-AHbTkimgu-eclv-84" value="제품이름" style="ellipse;whiteSpace=wrap;html=1;align=center;" parent="1" vertex="1">
          <mxGeometry x="920" y="560" width="40" height="40" as="geometry" />
        </mxCell>
        <mxCell id="opT3b-AHbTkimgu-eclv-85" value="" style="endArrow=none;html=1;rounded=0;" parent="1" source="opT3b-AHbTkimgu-eclv-83" edge="1">
          <mxGeometry width="50" height="50" relative="1" as="geometry">
            <mxPoint x="640" y="420" as="sourcePoint" />
            <mxPoint x="920" y="540" as="targetPoint" />
          </mxGeometry>
        </mxCell>
        <mxCell id="opT3b-AHbTkimgu-eclv-89" value="직원" style="whiteSpace=wrap;html=1;align=center;labelBackgroundColor=none;" parent="1" vertex="1">
          <mxGeometry x="435" y="770" width="100" height="40" as="geometry" />
        </mxCell>
        <mxCell id="opT3b-AHbTkimgu-eclv-90" value="부서" style="whiteSpace=wrap;html=1;align=center;labelBackgroundColor=none;" parent="1" vertex="1">
          <mxGeometry x="920" y="770" width="100" height="40" as="geometry" />
        </mxCell>
        <mxCell id="opT3b-AHbTkimgu-eclv-91" value="포함" style="rhombus;whiteSpace=wrap;html=1;" parent="1" vertex="1">
          <mxGeometry x="670" y="770" width="80" height="80" as="geometry" />
        </mxCell>
        <mxCell id="opT3b-AHbTkimgu-eclv-92" value="" style="endArrow=none;html=1;rounded=0;exitX=1;exitY=0.75;exitDx=0;exitDy=0;" parent="1" target="opT3b-AHbTkimgu-eclv-91" edge="1">
          <mxGeometry width="50" height="50" relative="1" as="geometry">
            <mxPoint x="535" y="795" as="sourcePoint" />
            <mxPoint x="715" y="780" as="targetPoint" />
          </mxGeometry>
        </mxCell>
        <mxCell id="opT3b-AHbTkimgu-eclv-93" value="" style="endArrow=none;html=1;rounded=0;exitX=1;exitY=0.5;exitDx=0;exitDy=0;entryX=0;entryY=0.5;entryDx=0;entryDy=0;" parent="1" source="opT3b-AHbTkimgu-eclv-91" edge="1">
          <mxGeometry width="50" height="50" relative="1" as="geometry">
            <mxPoint x="820" y="820" as="sourcePoint" />
            <mxPoint x="920" y="800" as="targetPoint" />
          </mxGeometry>
        </mxCell>
        <mxCell id="opT3b-AHbTkimgu-eclv-94" value="ID&lt;br&gt;&lt;div&gt;pk&lt;/div&gt;" style="ellipse;whiteSpace=wrap;html=1;align=center;" parent="1" vertex="1">
          <mxGeometry x="430" y="830" width="40" height="40" as="geometry" />
        </mxCell>
        <mxCell id="opT3b-AHbTkimgu-eclv-95" value="고객&lt;div&gt;이름&lt;/div&gt;" style="ellipse;whiteSpace=wrap;html=1;align=center;" parent="1" vertex="1">
          <mxGeometry x="480" y="570" width="40" height="40" as="geometry" />
        </mxCell>
        <mxCell id="opT3b-AHbTkimgu-eclv-98" value="1" style="text;html=1;align=center;verticalAlign=middle;whiteSpace=wrap;rounded=0;" parent="1" vertex="1">
          <mxGeometry x="890" y="650" width="20" height="30" as="geometry" />
        </mxCell>
        <mxCell id="opT3b-AHbTkimgu-eclv-99" value="1" style="text;html=1;align=center;verticalAlign=middle;whiteSpace=wrap;rounded=0;" parent="1" vertex="1">
          <mxGeometry x="540" y="650" width="20" height="30" as="geometry" />
        </mxCell>
        <mxCell id="opT3b-AHbTkimgu-eclv-100" value="ID&lt;br&gt;&lt;div&gt;pk&lt;/div&gt;" style="ellipse;whiteSpace=wrap;html=1;align=center;" parent="1" vertex="1">
          <mxGeometry x="435" y="710" width="40" height="40" as="geometry" />
        </mxCell>
        <mxCell id="opT3b-AHbTkimgu-eclv-101" value="고객&lt;div&gt;이름&lt;/div&gt;" style="ellipse;whiteSpace=wrap;html=1;align=center;" parent="1" vertex="1">
          <mxGeometry x="470" y="710" width="40" height="40" as="geometry" />
        </mxCell>
        <mxCell id="opT3b-AHbTkimgu-eclv-102" value="고객 주소" style="ellipse;whiteSpace=wrap;html=1;align=center;" parent="1" vertex="1">
          <mxGeometry x="510" y="710" width="40" height="40" as="geometry" />
        </mxCell>
        <mxCell id="opT3b-AHbTkimgu-eclv-103" value="1" style="text;html=1;align=center;verticalAlign=middle;whiteSpace=wrap;rounded=0;" parent="1" vertex="1">
          <mxGeometry x="650" y="650" width="20" height="30" as="geometry" />
        </mxCell>
        <mxCell id="opT3b-AHbTkimgu-eclv-104" value="N" style="text;html=1;align=center;verticalAlign=middle;whiteSpace=wrap;rounded=0;" parent="1" vertex="1">
          <mxGeometry x="750" y="650" width="20" height="30" as="geometry" />
        </mxCell>
        <mxCell id="opT3b-AHbTkimgu-eclv-105" value="컴퓨터 본체" style="whiteSpace=wrap;html=1;align=center;labelBackgroundColor=none;" parent="1" vertex="1">
          <mxGeometry x="435" y="930" width="100" height="40" as="geometry" />
        </mxCell>
        <mxCell id="opT3b-AHbTkimgu-eclv-106" value="부서&lt;div&gt;이름&lt;/div&gt;" style="ellipse;whiteSpace=wrap;html=1;align=center;" parent="1" vertex="1">
          <mxGeometry x="920" y="820" width="40" height="40" as="geometry" />
        </mxCell>
        <mxCell id="opT3b-AHbTkimgu-eclv-110" value="모니터" style="whiteSpace=wrap;html=1;align=center;labelBackgroundColor=none;" parent="1" vertex="1">
          <mxGeometry x="925" y="930" width="100" height="40" as="geometry" />
        </mxCell>
        <mxCell id="opT3b-AHbTkimgu-eclv-111" value="연결" style="rhombus;whiteSpace=wrap;html=1;" parent="1" vertex="1">
          <mxGeometry x="670" y="910" width="80" height="80" as="geometry" />
        </mxCell>
        <mxCell id="opT3b-AHbTkimgu-eclv-112" value="" style="endArrow=none;html=1;rounded=0;exitX=1;exitY=0.75;exitDx=0;exitDy=0;" parent="1" target="opT3b-AHbTkimgu-eclv-111" edge="1">
          <mxGeometry width="50" height="50" relative="1" as="geometry">
            <mxPoint x="540" y="945" as="sourcePoint" />
            <mxPoint x="720" y="930" as="targetPoint" />
          </mxGeometry>
        </mxCell>
        <mxCell id="opT3b-AHbTkimgu-eclv-113" value="" style="endArrow=none;html=1;rounded=0;exitX=1;exitY=0.5;exitDx=0;exitDy=0;entryX=0;entryY=0.5;entryDx=0;entryDy=0;" parent="1" source="opT3b-AHbTkimgu-eclv-111" edge="1">
          <mxGeometry width="50" height="50" relative="1" as="geometry">
            <mxPoint x="825" y="970" as="sourcePoint" />
            <mxPoint x="925" y="950" as="targetPoint" />
          </mxGeometry>
        </mxCell>
        <mxCell id="opT3b-AHbTkimgu-eclv-114" value="부서 위치" style="ellipse;whiteSpace=wrap;html=1;align=center;" parent="1" vertex="1">
          <mxGeometry x="960" y="820" width="40" height="40" as="geometry" />
        </mxCell>
        <mxCell id="opT3b-AHbTkimgu-eclv-115" value="제품이름" style="ellipse;whiteSpace=wrap;html=1;align=center;" parent="1" vertex="1">
          <mxGeometry x="920" y="710" width="40" height="40" as="geometry" />
        </mxCell>
        <mxCell id="opT3b-AHbTkimgu-eclv-116" value="제품&lt;div&gt;사용기한&lt;/div&gt;" style="ellipse;whiteSpace=wrap;html=1;align=center;" parent="1" vertex="1">
          <mxGeometry x="960" y="710" width="40" height="40" as="geometry" />
        </mxCell>
        <mxCell id="opT3b-AHbTkimgu-eclv-117" value="제품 종류" style="ellipse;whiteSpace=wrap;html=1;align=center;" parent="1" vertex="1">
          <mxGeometry x="1000" y="710" width="40" height="40" as="geometry" />
        </mxCell>
        <mxCell id="opT3b-AHbTkimgu-eclv-118" value="제품&lt;div&gt;갯수&lt;/div&gt;" style="ellipse;whiteSpace=wrap;html=1;align=center;" parent="1" vertex="1">
          <mxGeometry x="960" y="560" width="40" height="40" as="geometry" />
        </mxCell>
        <mxCell id="opT3b-AHbTkimgu-eclv-119" value="1" style="text;html=1;align=center;verticalAlign=middle;whiteSpace=wrap;rounded=0;" parent="1" vertex="1">
          <mxGeometry x="540" y="500" width="20" height="30" as="geometry" />
        </mxCell>
        <mxCell id="opT3b-AHbTkimgu-eclv-120" value="" style="endArrow=none;html=1;rounded=0;" parent="1" target="opT3b-AHbTkimgu-eclv-121" edge="1">
          <mxGeometry width="50" height="50" relative="1" as="geometry">
            <mxPoint x="540" y="688.82" as="sourcePoint" />
            <mxPoint x="710" y="680" as="targetPoint" />
          </mxGeometry>
        </mxCell>
        <mxCell id="opT3b-AHbTkimgu-eclv-121" value="구매" style="rhombus;whiteSpace=wrap;html=1;" parent="1" vertex="1">
          <mxGeometry x="670" y="650" width="80" height="80" as="geometry" />
        </mxCell>
        <mxCell id="opT3b-AHbTkimgu-eclv-122" value="" style="endArrow=none;html=1;rounded=0;" parent="1" source="opT3b-AHbTkimgu-eclv-121" edge="1">
          <mxGeometry width="50" height="50" relative="1" as="geometry">
            <mxPoint x="640" y="570" as="sourcePoint" />
            <mxPoint x="920" y="690" as="targetPoint" />
          </mxGeometry>
        </mxCell>
        <mxCell id="opT3b-AHbTkimgu-eclv-123" value="제품이름" style="ellipse;whiteSpace=wrap;html=1;align=center;" parent="1" vertex="1">
          <mxGeometry x="710" y="730" width="40" height="40" as="geometry" />
        </mxCell>
        <mxCell id="opT3b-AHbTkimgu-eclv-124" value="고객&lt;div&gt;이름&lt;/div&gt;" style="ellipse;whiteSpace=wrap;html=1;align=center;" parent="1" vertex="1">
          <mxGeometry x="670" y="730" width="40" height="40" as="geometry" />
        </mxCell>
        <mxCell id="opT3b-AHbTkimgu-eclv-126" value="&lt;div&gt;직원 주소&lt;/div&gt;" style="ellipse;whiteSpace=wrap;html=1;align=center;" parent="1" vertex="1">
          <mxGeometry x="510" y="830" width="40" height="40" as="geometry" />
        </mxCell>
        <mxCell id="opT3b-AHbTkimgu-eclv-129" value="&lt;div&gt;직원 이름&lt;/div&gt;" style="ellipse;whiteSpace=wrap;html=1;align=center;" parent="1" vertex="1">
          <mxGeometry x="660" y="850" width="40" height="40" as="geometry" />
        </mxCell>
        <mxCell id="opT3b-AHbTkimgu-eclv-130" value="하는 일" style="ellipse;whiteSpace=wrap;html=1;align=center;" parent="1" vertex="1">
          <mxGeometry x="1000" y="820" width="40" height="40" as="geometry" />
        </mxCell>
        <mxCell id="opT3b-AHbTkimgu-eclv-131" value="하는 일" style="ellipse;whiteSpace=wrap;html=1;align=center;" parent="1" vertex="1">
          <mxGeometry x="700" y="850" width="40" height="40" as="geometry" />
        </mxCell>
        <mxCell id="opT3b-AHbTkimgu-eclv-132" value="ㅋㅋㅋㅋㅋㅋㅋ이거 맞아?" style="text;html=1;align=center;verticalAlign=middle;whiteSpace=wrap;rounded=0;" parent="1" vertex="1">
          <mxGeometry x="990" y="870" width="80" height="60" as="geometry" />
        </mxCell>
        <mxCell id="opT3b-AHbTkimgu-eclv-133" value="1" style="text;html=1;align=center;verticalAlign=middle;whiteSpace=wrap;rounded=0;" parent="1" vertex="1">
          <mxGeometry x="540" y="760" width="20" height="30" as="geometry" />
        </mxCell>
        <mxCell id="opT3b-AHbTkimgu-eclv-134" value="N" style="text;html=1;align=center;verticalAlign=middle;whiteSpace=wrap;rounded=0;" parent="1" vertex="1">
          <mxGeometry x="650" y="775" width="20" height="30" as="geometry" />
        </mxCell>
        <mxCell id="opT3b-AHbTkimgu-eclv-135" value="1" style="text;html=1;align=center;verticalAlign=middle;whiteSpace=wrap;rounded=0;" parent="1" vertex="1">
          <mxGeometry x="750" y="780" width="20" height="30" as="geometry" />
        </mxCell>
        <mxCell id="opT3b-AHbTkimgu-eclv-136" value="1" style="text;html=1;align=center;verticalAlign=middle;whiteSpace=wrap;rounded=0;" parent="1" vertex="1">
          <mxGeometry x="900" y="770" width="20" height="30" as="geometry" />
        </mxCell>
        <mxCell id="opT3b-AHbTkimgu-eclv-137" value="N" style="text;html=1;align=center;verticalAlign=middle;whiteSpace=wrap;rounded=0;" parent="1" vertex="1">
          <mxGeometry x="745" y="490" width="20" height="30" as="geometry" />
        </mxCell>
        <mxCell id="opT3b-AHbTkimgu-eclv-138" value="1" style="text;html=1;align=center;verticalAlign=middle;whiteSpace=wrap;rounded=0;" parent="1" vertex="1">
          <mxGeometry x="900" y="500" width="20" height="30" as="geometry" />
        </mxCell>
        <mxCell id="opT3b-AHbTkimgu-eclv-139" value="1" style="text;html=1;align=center;verticalAlign=middle;whiteSpace=wrap;rounded=0;" parent="1" vertex="1">
          <mxGeometry x="680" y="500" width="20" height="30" as="geometry" />
        </mxCell>
        <mxCell id="opT3b-AHbTkimgu-eclv-140" value="&lt;div&gt;본체&lt;/div&gt;ID&lt;br&gt;&lt;div&gt;pk&lt;/div&gt;" style="ellipse;whiteSpace=wrap;html=1;align=center;" parent="1" vertex="1">
          <mxGeometry x="430" y="970" width="40" height="40" as="geometry" />
        </mxCell>
        <mxCell id="opT3b-AHbTkimgu-eclv-141" value="본체사향" style="ellipse;whiteSpace=wrap;html=1;align=center;fontStyle=1" parent="1" vertex="1">
          <mxGeometry x="470" y="970" width="40" height="40" as="geometry" />
        </mxCell>
        <mxCell id="opT3b-AHbTkimgu-eclv-142" value="모니터 ID&lt;div&gt;PK&lt;/div&gt;" style="ellipse;whiteSpace=wrap;html=1;align=center;" parent="1" vertex="1">
          <mxGeometry x="680" y="980" width="40" height="40" as="geometry" />
        </mxCell>
        <mxCell id="opT3b-AHbTkimgu-eclv-143" value="부서&lt;div&gt;이름&lt;/div&gt;" style="ellipse;whiteSpace=wrap;html=1;align=center;" parent="1" vertex="1">
          <mxGeometry x="740" y="850" width="40" height="40" as="geometry" />
        </mxCell>
        <mxCell id="opT3b-AHbTkimgu-eclv-144" value="제품&amp;nbsp;&lt;div&gt;가격&lt;/div&gt;" style="ellipse;whiteSpace=wrap;html=1;align=center;" parent="1" vertex="1">
          <mxGeometry x="1040" y="710" width="40" height="40" as="geometry" />
        </mxCell>
        <mxCell id="opT3b-AHbTkimgu-eclv-145" value="제품&amp;nbsp;&lt;div&gt;가격&lt;/div&gt;" style="ellipse;whiteSpace=wrap;html=1;align=center;" parent="1" vertex="1">
          <mxGeometry x="750" y="730" width="40" height="40" as="geometry" />
        </mxCell>
        <mxCell id="opT3b-AHbTkimgu-eclv-146" value="고객&amp;nbsp;&lt;div&gt;전화번호&lt;/div&gt;" style="ellipse;whiteSpace=wrap;html=1;align=center;" parent="1" vertex="1">
          <mxGeometry x="560" y="570" width="40" height="40" as="geometry" />
        </mxCell>
        <mxCell id="opT3b-AHbTkimgu-eclv-147" value="고객&amp;nbsp;&lt;div&gt;전화번호&lt;/div&gt;" style="ellipse;whiteSpace=wrap;html=1;align=center;" parent="1" vertex="1">
          <mxGeometry x="550" y="710" width="40" height="40" as="geometry" />
        </mxCell>
        <mxCell id="opT3b-AHbTkimgu-eclv-148" value="직원&amp;nbsp;&lt;div&gt;전화번호&lt;/div&gt;" style="ellipse;whiteSpace=wrap;html=1;align=center;" parent="1" vertex="1">
          <mxGeometry x="550" y="830" width="40" height="40" as="geometry" />
        </mxCell>
        <mxCell id="opT3b-AHbTkimgu-eclv-149" value="제품가격" style="ellipse;whiteSpace=wrap;html=1;align=center;" parent="1" vertex="1">
          <mxGeometry x="1000" y="560" width="40" height="40" as="geometry" />
        </mxCell>
        <mxCell id="opT3b-AHbTkimgu-eclv-150" value="제품&amp;nbsp;&lt;div&gt;상세정보&lt;/div&gt;" style="ellipse;whiteSpace=wrap;html=1;align=center;" parent="1" vertex="1">
          <mxGeometry x="1080" y="710" width="40" height="40" as="geometry" />
        </mxCell>
        <mxCell id="opT3b-AHbTkimgu-eclv-155" value="모니터&lt;div&gt;사향&lt;/div&gt;" style="ellipse;whiteSpace=wrap;html=1;align=center;" parent="1" vertex="1">
          <mxGeometry x="965" y="970" width="40" height="40" as="geometry" />
        </mxCell>
        <mxCell id="opT3b-AHbTkimgu-eclv-156" value="&lt;div&gt;본체&lt;/div&gt;ID&lt;br&gt;&lt;div&gt;pk&lt;/div&gt;" style="ellipse;whiteSpace=wrap;html=1;align=center;" parent="1" vertex="1">
          <mxGeometry x="640" y="980" width="40" height="40" as="geometry" />
        </mxCell>
        <mxCell id="opT3b-AHbTkimgu-eclv-157" value="모니터 ID&lt;div&gt;PK&lt;/div&gt;" style="ellipse;whiteSpace=wrap;html=1;align=center;" parent="1" vertex="1">
          <mxGeometry x="925" y="970" width="40" height="40" as="geometry" />
        </mxCell>
        <mxCell id="opT3b-AHbTkimgu-eclv-158" value="수업과목" style="whiteSpace=wrap;html=1;align=center;labelBackgroundColor=none;" parent="1" vertex="1">
          <mxGeometry x="445" y="1060" width="100" height="40" as="geometry" />
        </mxCell>
        <mxCell id="opT3b-AHbTkimgu-eclv-159" value="학생" style="whiteSpace=wrap;html=1;align=center;labelBackgroundColor=none;" parent="1" vertex="1">
          <mxGeometry x="930" y="1060" width="100" height="40" as="geometry" />
        </mxCell>
        <mxCell id="opT3b-AHbTkimgu-eclv-160" value="수강신청" style="rhombus;whiteSpace=wrap;html=1;" parent="1" vertex="1">
          <mxGeometry x="675" y="1040" width="80" height="80" as="geometry" />
        </mxCell>
        <mxCell id="opT3b-AHbTkimgu-eclv-161" value="" style="endArrow=none;html=1;rounded=0;exitX=1;exitY=0.75;exitDx=0;exitDy=0;" parent="1" target="opT3b-AHbTkimgu-eclv-160" edge="1">
          <mxGeometry width="50" height="50" relative="1" as="geometry">
            <mxPoint x="545" y="1075" as="sourcePoint" />
            <mxPoint x="725" y="1060" as="targetPoint" />
          </mxGeometry>
        </mxCell>
        <mxCell id="opT3b-AHbTkimgu-eclv-162" value="" style="endArrow=none;html=1;rounded=0;exitX=1;exitY=0.5;exitDx=0;exitDy=0;entryX=0;entryY=0.5;entryDx=0;entryDy=0;" parent="1" source="opT3b-AHbTkimgu-eclv-160" edge="1">
          <mxGeometry width="50" height="50" relative="1" as="geometry">
            <mxPoint x="830" y="1100" as="sourcePoint" />
            <mxPoint x="930" y="1080" as="targetPoint" />
          </mxGeometry>
        </mxCell>
        <mxCell id="opT3b-AHbTkimgu-eclv-163" value="&lt;div&gt;과목번호&lt;/div&gt;ID&lt;br&gt;&lt;div&gt;pk&lt;/div&gt;" style="ellipse;whiteSpace=wrap;html=1;align=center;" parent="1" vertex="1">
          <mxGeometry x="445" y="1110" width="40" height="40" as="geometry" />
        </mxCell>
        <mxCell id="opT3b-AHbTkimgu-eclv-169" value="1" style="text;html=1;align=center;verticalAlign=middle;whiteSpace=wrap;rounded=0;" parent="1" vertex="1">
          <mxGeometry x="550" y="910" width="20" height="30" as="geometry" />
        </mxCell>
        <mxCell id="opT3b-AHbTkimgu-eclv-170" value="1" style="text;html=1;align=center;verticalAlign=middle;whiteSpace=wrap;rounded=0;" parent="1" vertex="1">
          <mxGeometry x="905" y="920" width="20" height="30" as="geometry" />
        </mxCell>
        <mxCell id="opT3b-AHbTkimgu-eclv-171" value="N" style="text;html=1;align=center;verticalAlign=middle;whiteSpace=wrap;rounded=0;" parent="1" vertex="1">
          <mxGeometry x="750" y="920" width="20" height="30" as="geometry" />
        </mxCell>
        <mxCell id="opT3b-AHbTkimgu-eclv-172" value="1" style="text;html=1;align=center;verticalAlign=middle;whiteSpace=wrap;rounded=0;" parent="1" vertex="1">
          <mxGeometry x="655" y="920" width="20" height="30" as="geometry" />
        </mxCell>
        <mxCell id="opT3b-AHbTkimgu-eclv-173" value="&lt;div&gt;과목종류&lt;/div&gt;" style="ellipse;whiteSpace=wrap;html=1;align=center;" parent="1" vertex="1">
          <mxGeometry x="485" y="1110" width="40" height="40" as="geometry" />
        </mxCell>
        <mxCell id="opT3b-AHbTkimgu-eclv-175" value="수업내용" style="ellipse;whiteSpace=wrap;html=1;align=center;" parent="1" vertex="1">
          <mxGeometry x="525" y="1110" width="40" height="40" as="geometry" />
        </mxCell>
        <mxCell id="opT3b-AHbTkimgu-eclv-179" value="수업제목" style="ellipse;whiteSpace=wrap;html=1;align=center;" parent="1" vertex="1">
          <mxGeometry x="445" y="1160" width="40" height="40" as="geometry" />
        </mxCell>
        <mxCell id="opT3b-AHbTkimgu-eclv-180" value="교수님" style="ellipse;whiteSpace=wrap;html=1;align=center;" parent="1" vertex="1">
          <mxGeometry x="485" y="1160" width="40" height="40" as="geometry" />
        </mxCell>
        <mxCell id="opT3b-AHbTkimgu-eclv-182" value="학생 ID PK" style="ellipse;whiteSpace=wrap;html=1;align=center;" parent="1" vertex="1">
          <mxGeometry x="920" y="1120" width="40" height="40" as="geometry" />
        </mxCell>
        <mxCell id="opT3b-AHbTkimgu-eclv-183" value="&lt;div&gt;과목번호&lt;/div&gt;ID&lt;br&gt;&lt;div&gt;pk&lt;/div&gt;" style="ellipse;whiteSpace=wrap;html=1;align=center;" parent="1" vertex="1">
          <mxGeometry x="670" y="1120" width="40" height="40" as="geometry" />
        </mxCell>
      </root>
    </mxGraphModel>
  </diagram>
</mxfile>
